G04 EAGLE Gerber X2 export*
%TF.Part,Single*%
%TF.FileFunction,Soldermask,Top,1*%
%TF.FilePolarity,Negative*%
%TF.GenerationSoftware,Autodesk,EAGLE,9.0.0*%
%TF.CreationDate,2019-09-24T12:48:38Z*%
G75*
%MOMM*%
%FSLAX34Y34*%
%LPD*%
%AMOC8*
5,1,8,0,0,1.08239X$1,22.5*%
G01*
%ADD10C,3.203200*%
%ADD11R,5.537200X2.133600*%
%ADD12C,1.524000*%
%ADD13C,2.453200*%
%ADD14P,1.649562X8X292.500000*%
%ADD15C,2.108200*%
%ADD16P,2.281895X8X112.500000*%
%ADD17P,1.869504X8X202.500000*%
%ADD18C,2.743200*%
%ADD19P,2.969212X8X22.500000*%
%ADD20C,1.727200*%
%ADD21R,1.711200X1.711200*%
%ADD22P,1.649562X8X202.500000*%
%ADD23P,1.869504X8X292.500000*%
%ADD24P,1.869504X8X22.500000*%
%ADD25P,1.649562X8X22.500000*%
%ADD26P,1.649562X8X112.500000*%
%ADD27P,2.556822X8X22.500000*%
%ADD28C,0.959600*%
%ADD29C,0.809600*%
%ADD30C,1.703200*%


D10*
X150000Y770000D03*
X150000Y10000D03*
X1012000Y770000D03*
X1010000Y10000D03*
D11*
X945660Y62600D03*
X849140Y62600D03*
D12*
X945000Y278896D02*
X945000Y292104D01*
X919600Y292104D02*
X919600Y278896D01*
X894200Y278896D02*
X894200Y292104D01*
X868800Y292104D02*
X868800Y278896D01*
X843400Y278896D02*
X843400Y292104D01*
X818000Y292104D02*
X818000Y278896D01*
X792600Y278896D02*
X792600Y292104D01*
X767200Y292104D02*
X767200Y278896D01*
X741800Y278896D02*
X741800Y292104D01*
X716400Y292104D02*
X716400Y278896D01*
X691000Y278896D02*
X691000Y292104D01*
X665600Y292104D02*
X665600Y278896D01*
X640200Y278896D02*
X640200Y292104D01*
X614800Y292104D02*
X614800Y278896D01*
X589400Y278896D02*
X589400Y292104D01*
X564000Y292104D02*
X564000Y278896D01*
X538600Y278896D02*
X538600Y292104D01*
X513200Y292104D02*
X513200Y278896D01*
X487800Y278896D02*
X487800Y292104D01*
X462400Y292104D02*
X462400Y278896D01*
X462400Y139704D02*
X462400Y126496D01*
X487800Y126496D02*
X487800Y139704D01*
X513200Y139704D02*
X513200Y126496D01*
X538600Y126496D02*
X538600Y139704D01*
X564000Y139704D02*
X564000Y126496D01*
X589400Y126496D02*
X589400Y139704D01*
X614800Y139704D02*
X614800Y126496D01*
X640200Y126496D02*
X640200Y139704D01*
X665600Y139704D02*
X665600Y126496D01*
X691000Y126496D02*
X691000Y139704D01*
X716400Y139704D02*
X716400Y126496D01*
X741800Y126496D02*
X741800Y139704D01*
X767200Y139704D02*
X767200Y126496D01*
X792600Y126496D02*
X792600Y139704D01*
X818000Y139704D02*
X818000Y126496D01*
X843400Y126496D02*
X843400Y139704D01*
X868800Y139704D02*
X868800Y126496D01*
X894200Y126496D02*
X894200Y139704D01*
X919600Y139704D02*
X919600Y126496D01*
X945000Y126496D02*
X945000Y139704D01*
D13*
X647200Y551700D03*
X700600Y551700D03*
X754200Y551700D03*
D14*
X746800Y75100D03*
X746800Y49700D03*
X793200Y75100D03*
X793200Y49700D03*
D15*
X551000Y26300D03*
D16*
X551000Y77100D03*
D17*
X343530Y397400D03*
X193670Y397400D03*
D18*
X506600Y743100D03*
D19*
X557400Y743100D03*
D18*
X412600Y743100D03*
D19*
X463400Y743100D03*
D20*
X213620Y273900D02*
X198380Y273900D01*
X198380Y248500D02*
X213620Y248500D01*
X213620Y223100D02*
X198380Y223100D01*
X198380Y197700D02*
X213620Y197700D01*
X213620Y149600D02*
X198380Y149600D01*
X198380Y124200D02*
X213620Y124200D01*
X213620Y98800D02*
X198380Y98800D01*
X198380Y73400D02*
X213620Y73400D01*
X213620Y48000D02*
X198380Y48000D01*
D10*
X925900Y647400D03*
X830900Y647400D03*
X736000Y647400D03*
X640900Y647400D03*
D21*
X308700Y756900D03*
X258700Y756900D03*
X360700Y462900D03*
X206700Y462900D03*
D12*
X531096Y455900D02*
X544304Y455900D01*
X544304Y430500D02*
X531096Y430500D01*
X607296Y430500D02*
X620504Y430500D01*
X620504Y455900D02*
X607296Y455900D01*
X544304Y405100D02*
X531096Y405100D01*
X607296Y405100D02*
X620504Y405100D01*
X431104Y457400D02*
X417896Y457400D01*
X417896Y432000D02*
X431104Y432000D01*
X494096Y432000D02*
X507304Y432000D01*
X507304Y457400D02*
X494096Y457400D01*
X431104Y406600D02*
X417896Y406600D01*
X494096Y406600D02*
X507304Y406600D01*
X945696Y320600D02*
X958904Y320600D01*
X958904Y346000D02*
X945696Y346000D01*
X882704Y346000D02*
X869496Y346000D01*
X869496Y320600D02*
X882704Y320600D01*
X508904Y327100D02*
X495696Y327100D01*
X495696Y352500D02*
X508904Y352500D01*
X432704Y352500D02*
X419496Y352500D01*
X419496Y327100D02*
X432704Y327100D01*
D22*
X336700Y343200D03*
X260500Y343200D03*
X619900Y362400D03*
X543700Y362400D03*
D23*
X956300Y567500D03*
X956300Y389700D03*
X882500Y567500D03*
X882500Y389700D03*
D24*
X649300Y382500D03*
X827100Y382500D03*
X649900Y452500D03*
X827700Y452500D03*
D23*
X456000Y667500D03*
X456000Y489700D03*
D25*
X261700Y36800D03*
X337900Y36800D03*
X261700Y66800D03*
X337900Y66800D03*
X261700Y96800D03*
X337900Y96800D03*
X366900Y96800D03*
X443100Y96800D03*
D14*
X696800Y94700D03*
X696800Y18500D03*
D22*
X846300Y323200D03*
X770100Y323200D03*
D23*
X526300Y666900D03*
X526300Y489100D03*
D20*
X654492Y36994D02*
X669732Y36994D01*
X669732Y82206D02*
X654492Y82206D01*
X604708Y36994D02*
X589468Y36994D01*
X589468Y82206D02*
X604708Y82206D01*
X370100Y63620D02*
X370100Y48380D01*
X395500Y48380D02*
X395500Y63620D01*
X420900Y63620D02*
X420900Y48380D01*
X446300Y48380D02*
X446300Y63620D01*
X471700Y63620D02*
X471700Y48380D01*
X497100Y48380D02*
X497100Y63620D01*
X213620Y337400D02*
X198380Y337400D01*
X198380Y312000D02*
X213620Y312000D01*
D26*
X380000Y341900D03*
X380000Y418100D03*
D27*
X311900Y220000D03*
X388100Y220000D03*
D28*
X640000Y340000D03*
X600000Y340000D03*
D29*
X530000Y310000D03*
D28*
X270000Y270000D03*
X270000Y170000D03*
X620000Y180000D03*
X613000Y258900D03*
D30*
X754000Y190000D03*
X860000Y200000D03*
X900000Y200000D03*
X650000Y710000D03*
X940000Y750000D03*
X200000Y640000D03*
X240000Y640000D03*
X900000Y480000D03*
X970000Y480000D03*
X490000Y620000D03*
X520000Y620000D03*
X260000Y540000D03*
X260000Y500000D03*
D29*
X720000Y330000D03*
X400000Y450000D03*
X627000Y230000D03*
M02*
