M48
;GenerationSoftware,Autodesk,EAGLE,9.0.0*%
;CreationDate,2019-09-24T12:48:36Z*%
FMAT,2
ICI,OFF
METRIC,TZ,000.000
T8C0.200
T7C0.350
T6C0.813
T5C1.000
T4C1.016
T3C1.500
T2C2.000
T1C3.000
%
G90
M71
T1
X15000Y77000
X15000Y1000
X101200Y77000
X101000Y1000
T2
X64090Y64740
X73600Y64740
X83090Y64740
X92590Y64740
T3
X64720Y55170
X75420Y55170
X70060Y55170
T4
X34353Y39740
X20600Y4800
X20600Y7340
X20600Y9880
X20600Y12420
X20600Y14960
X20600Y19770
X39550Y5600
X41260Y74310
X42090Y5600
X44630Y5600
X47170Y5600
X49710Y5600
X20600Y33740
X20600Y31200
X31190Y22000
X19367Y39740
X20600Y22310
X20600Y24850
X50660Y74310
X55740Y74310
X20600Y27390
X46340Y74310
X37010Y5600
X38810Y22000
X95630Y56750
X95630Y38970
X88250Y56750
X88250Y38970
X64930Y38250
X82710Y38250
X64990Y45250
X82770Y45250
X45600Y66750
X45600Y48970
X52630Y66690
X52630Y48910
X66211Y3699
X66211Y8221
X59709Y3699
X59709Y8221
T5
X75400Y19000
X90000Y20000
X65000Y71000
X94000Y75000
X20000Y64000
X24000Y64000
X90000Y48000
X97000Y48000
X86000Y20000
X26000Y54000
X52000Y62000
X49000Y62000
X30870Y75690
X25870Y75690
X36070Y46290
X20670Y46290
X26000Y50000
T6
X79260Y13310
X84340Y13310
X86880Y13310
X89420Y13310
X91960Y13310
X94500Y13310
X74680Y7510
X74680Y4970
X79320Y7510
X79320Y4970
X55100Y2630
X55100Y7710
X54370Y36240
X61480Y28550
X81800Y13310
X94500Y28550
X91960Y28550
X89420Y28550
X86880Y28550
X84340Y28550
X81800Y28550
X53770Y45590
X53770Y43050
X61390Y43050
X61390Y45590
X53770Y40510
X61390Y40510
X42450Y45740
X42450Y43200
X50070Y43200
X50070Y45740
X42450Y40660
X50070Y40660
X95230Y32060
X95230Y34600
X87610Y34600
X87610Y32060
X50230Y32710
X50230Y35250
X42610Y35250
X42610Y32710
X33670Y34320
X26050Y34320
X61990Y36240
X79260Y28550
X76720Y28550
X74180Y28550
X71640Y28550
X69100Y28550
X66560Y28550
X64020Y28550
X58940Y28550
X56400Y28550
X53860Y28550
X51320Y28550
X26170Y3680
X33790Y3680
X26170Y6680
X33790Y6680
X26170Y9680
X33790Y9680
X36690Y9680
X44310Y9680
X69680Y9470
X84630Y32320
X77010Y32320
X48780Y28550
X46240Y28550
X46240Y13310
X48780Y13310
X51320Y13310
X53860Y13310
X56400Y13310
X58940Y13310
X61480Y13310
X64020Y13310
X66560Y13310
X69100Y13310
X71640Y13310
X74180Y13310
X38000Y34190
X38000Y41810
X76720Y13310
X69680Y1850
T7
X27000Y27000
X60000Y34000
X61300Y25890
X62000Y18000
X27000Y17000
X64000Y34000
T8
X53000Y31000
X72000Y33000
X62700Y23000
X40000Y45000
M30