G04 EAGLE Gerber X2 export*
%TF.Part,Single*%
%TF.FileFunction,Profile,NP*%
%TF.FilePolarity,Positive*%
%TF.GenerationSoftware,Autodesk,EAGLE,9.0.0*%
%TF.CreationDate,2019-09-24T12:48:38Z*%
G75*
%MOMM*%
%FSLAX34Y34*%
%LPD*%
%AMOC8*
5,1,8,0,0,1.08239X$1,22.5*%
G01*
%ADD10C,0.254000*%


D10*
X120000Y-20000D02*
X1040000Y-20000D01*
X1040000Y800000D01*
X120000Y800000D01*
X120000Y-20000D01*
X165000Y769464D02*
X164924Y768396D01*
X164771Y767335D01*
X164543Y766288D01*
X164241Y765260D01*
X163867Y764256D01*
X163422Y763281D01*
X162908Y762341D01*
X162329Y761440D01*
X161687Y760582D01*
X160985Y759772D01*
X160228Y759015D01*
X159418Y758313D01*
X158560Y757671D01*
X157659Y757092D01*
X156719Y756578D01*
X155744Y756133D01*
X154740Y755759D01*
X153712Y755457D01*
X152665Y755229D01*
X151604Y755076D01*
X150536Y755000D01*
X149464Y755000D01*
X148396Y755076D01*
X147335Y755229D01*
X146288Y755457D01*
X145260Y755759D01*
X144256Y756133D01*
X143281Y756578D01*
X142341Y757092D01*
X141440Y757671D01*
X140582Y758313D01*
X139772Y759015D01*
X139015Y759772D01*
X138313Y760582D01*
X137671Y761440D01*
X137092Y762341D01*
X136578Y763281D01*
X136133Y764256D01*
X135759Y765260D01*
X135457Y766288D01*
X135229Y767335D01*
X135076Y768396D01*
X135000Y769464D01*
X135000Y770536D01*
X135076Y771604D01*
X135229Y772665D01*
X135457Y773712D01*
X135759Y774740D01*
X136133Y775744D01*
X136578Y776719D01*
X137092Y777659D01*
X137671Y778560D01*
X138313Y779418D01*
X139015Y780228D01*
X139772Y780985D01*
X140582Y781687D01*
X141440Y782329D01*
X142341Y782908D01*
X143281Y783422D01*
X144256Y783867D01*
X145260Y784241D01*
X146288Y784543D01*
X147335Y784771D01*
X148396Y784924D01*
X149464Y785000D01*
X150536Y785000D01*
X151604Y784924D01*
X152665Y784771D01*
X153712Y784543D01*
X154740Y784241D01*
X155744Y783867D01*
X156719Y783422D01*
X157659Y782908D01*
X158560Y782329D01*
X159418Y781687D01*
X160228Y780985D01*
X160985Y780228D01*
X161687Y779418D01*
X162329Y778560D01*
X162908Y777659D01*
X163422Y776719D01*
X163867Y775744D01*
X164241Y774740D01*
X164543Y773712D01*
X164771Y772665D01*
X164924Y771604D01*
X165000Y770536D01*
X165000Y769464D01*
X165000Y9464D02*
X164924Y8396D01*
X164771Y7335D01*
X164543Y6288D01*
X164241Y5260D01*
X163867Y4256D01*
X163422Y3281D01*
X162908Y2341D01*
X162329Y1440D01*
X161687Y582D01*
X160985Y-228D01*
X160228Y-985D01*
X159418Y-1687D01*
X158560Y-2329D01*
X157659Y-2908D01*
X156719Y-3422D01*
X155744Y-3867D01*
X154740Y-4241D01*
X153712Y-4543D01*
X152665Y-4771D01*
X151604Y-4924D01*
X150536Y-5000D01*
X149464Y-5000D01*
X148396Y-4924D01*
X147335Y-4771D01*
X146288Y-4543D01*
X145260Y-4241D01*
X144256Y-3867D01*
X143281Y-3422D01*
X142341Y-2908D01*
X141440Y-2329D01*
X140582Y-1687D01*
X139772Y-985D01*
X139015Y-228D01*
X138313Y582D01*
X137671Y1440D01*
X137092Y2341D01*
X136578Y3281D01*
X136133Y4256D01*
X135759Y5260D01*
X135457Y6288D01*
X135229Y7335D01*
X135076Y8396D01*
X135000Y9464D01*
X135000Y10536D01*
X135076Y11604D01*
X135229Y12665D01*
X135457Y13712D01*
X135759Y14740D01*
X136133Y15744D01*
X136578Y16719D01*
X137092Y17659D01*
X137671Y18560D01*
X138313Y19418D01*
X139015Y20228D01*
X139772Y20985D01*
X140582Y21687D01*
X141440Y22329D01*
X142341Y22908D01*
X143281Y23422D01*
X144256Y23867D01*
X145260Y24241D01*
X146288Y24543D01*
X147335Y24771D01*
X148396Y24924D01*
X149464Y25000D01*
X150536Y25000D01*
X151604Y24924D01*
X152665Y24771D01*
X153712Y24543D01*
X154740Y24241D01*
X155744Y23867D01*
X156719Y23422D01*
X157659Y22908D01*
X158560Y22329D01*
X159418Y21687D01*
X160228Y20985D01*
X160985Y20228D01*
X161687Y19418D01*
X162329Y18560D01*
X162908Y17659D01*
X163422Y16719D01*
X163867Y15744D01*
X164241Y14740D01*
X164543Y13712D01*
X164771Y12665D01*
X164924Y11604D01*
X165000Y10536D01*
X165000Y9464D01*
X1027000Y769464D02*
X1026924Y768396D01*
X1026771Y767335D01*
X1026543Y766288D01*
X1026241Y765260D01*
X1025867Y764256D01*
X1025422Y763281D01*
X1024908Y762341D01*
X1024329Y761440D01*
X1023687Y760582D01*
X1022985Y759772D01*
X1022228Y759015D01*
X1021418Y758313D01*
X1020560Y757671D01*
X1019659Y757092D01*
X1018719Y756578D01*
X1017744Y756133D01*
X1016740Y755759D01*
X1015712Y755457D01*
X1014665Y755229D01*
X1013604Y755076D01*
X1012536Y755000D01*
X1011464Y755000D01*
X1010396Y755076D01*
X1009335Y755229D01*
X1008288Y755457D01*
X1007260Y755759D01*
X1006256Y756133D01*
X1005281Y756578D01*
X1004341Y757092D01*
X1003440Y757671D01*
X1002582Y758313D01*
X1001772Y759015D01*
X1001015Y759772D01*
X1000313Y760582D01*
X999671Y761440D01*
X999092Y762341D01*
X998578Y763281D01*
X998133Y764256D01*
X997759Y765260D01*
X997457Y766288D01*
X997229Y767335D01*
X997076Y768396D01*
X997000Y769464D01*
X997000Y770536D01*
X997076Y771604D01*
X997229Y772665D01*
X997457Y773712D01*
X997759Y774740D01*
X998133Y775744D01*
X998578Y776719D01*
X999092Y777659D01*
X999671Y778560D01*
X1000313Y779418D01*
X1001015Y780228D01*
X1001772Y780985D01*
X1002582Y781687D01*
X1003440Y782329D01*
X1004341Y782908D01*
X1005281Y783422D01*
X1006256Y783867D01*
X1007260Y784241D01*
X1008288Y784543D01*
X1009335Y784771D01*
X1010396Y784924D01*
X1011464Y785000D01*
X1012536Y785000D01*
X1013604Y784924D01*
X1014665Y784771D01*
X1015712Y784543D01*
X1016740Y784241D01*
X1017744Y783867D01*
X1018719Y783422D01*
X1019659Y782908D01*
X1020560Y782329D01*
X1021418Y781687D01*
X1022228Y780985D01*
X1022985Y780228D01*
X1023687Y779418D01*
X1024329Y778560D01*
X1024908Y777659D01*
X1025422Y776719D01*
X1025867Y775744D01*
X1026241Y774740D01*
X1026543Y773712D01*
X1026771Y772665D01*
X1026924Y771604D01*
X1027000Y770536D01*
X1027000Y769464D01*
X1025000Y9464D02*
X1024924Y8396D01*
X1024771Y7335D01*
X1024543Y6288D01*
X1024241Y5260D01*
X1023867Y4256D01*
X1023422Y3281D01*
X1022908Y2341D01*
X1022329Y1440D01*
X1021687Y582D01*
X1020985Y-228D01*
X1020228Y-985D01*
X1019418Y-1687D01*
X1018560Y-2329D01*
X1017659Y-2908D01*
X1016719Y-3422D01*
X1015744Y-3867D01*
X1014740Y-4241D01*
X1013712Y-4543D01*
X1012665Y-4771D01*
X1011604Y-4924D01*
X1010536Y-5000D01*
X1009464Y-5000D01*
X1008396Y-4924D01*
X1007335Y-4771D01*
X1006288Y-4543D01*
X1005260Y-4241D01*
X1004256Y-3867D01*
X1003281Y-3422D01*
X1002341Y-2908D01*
X1001440Y-2329D01*
X1000582Y-1687D01*
X999772Y-985D01*
X999015Y-228D01*
X998313Y582D01*
X997671Y1440D01*
X997092Y2341D01*
X996578Y3281D01*
X996133Y4256D01*
X995759Y5260D01*
X995457Y6288D01*
X995229Y7335D01*
X995076Y8396D01*
X995000Y9464D01*
X995000Y10536D01*
X995076Y11604D01*
X995229Y12665D01*
X995457Y13712D01*
X995759Y14740D01*
X996133Y15744D01*
X996578Y16719D01*
X997092Y17659D01*
X997671Y18560D01*
X998313Y19418D01*
X999015Y20228D01*
X999772Y20985D01*
X1000582Y21687D01*
X1001440Y22329D01*
X1002341Y22908D01*
X1003281Y23422D01*
X1004256Y23867D01*
X1005260Y24241D01*
X1006288Y24543D01*
X1007335Y24771D01*
X1008396Y24924D01*
X1009464Y25000D01*
X1010536Y25000D01*
X1011604Y24924D01*
X1012665Y24771D01*
X1013712Y24543D01*
X1014740Y24241D01*
X1015744Y23867D01*
X1016719Y23422D01*
X1017659Y22908D01*
X1018560Y22329D01*
X1019418Y21687D01*
X1020228Y20985D01*
X1020985Y20228D01*
X1021687Y19418D01*
X1022329Y18560D01*
X1022908Y17659D01*
X1023422Y16719D01*
X1023867Y15744D01*
X1024241Y14740D01*
X1024543Y13712D01*
X1024771Y12665D01*
X1024924Y11604D01*
X1025000Y10536D01*
X1025000Y9464D01*
X165000Y769464D02*
X164924Y768396D01*
X164771Y767335D01*
X164543Y766288D01*
X164241Y765260D01*
X163867Y764256D01*
X163422Y763281D01*
X162908Y762341D01*
X162329Y761440D01*
X161687Y760582D01*
X160985Y759772D01*
X160228Y759015D01*
X159418Y758313D01*
X158560Y757671D01*
X157659Y757092D01*
X156719Y756578D01*
X155744Y756133D01*
X154740Y755759D01*
X153712Y755457D01*
X152665Y755229D01*
X151604Y755076D01*
X150536Y755000D01*
X149464Y755000D01*
X148396Y755076D01*
X147335Y755229D01*
X146288Y755457D01*
X145260Y755759D01*
X144256Y756133D01*
X143281Y756578D01*
X142341Y757092D01*
X141440Y757671D01*
X140582Y758313D01*
X139772Y759015D01*
X139015Y759772D01*
X138313Y760582D01*
X137671Y761440D01*
X137092Y762341D01*
X136578Y763281D01*
X136133Y764256D01*
X135759Y765260D01*
X135457Y766288D01*
X135229Y767335D01*
X135076Y768396D01*
X135000Y769464D01*
X135000Y770536D01*
X135076Y771604D01*
X135229Y772665D01*
X135457Y773712D01*
X135759Y774740D01*
X136133Y775744D01*
X136578Y776719D01*
X137092Y777659D01*
X137671Y778560D01*
X138313Y779418D01*
X139015Y780228D01*
X139772Y780985D01*
X140582Y781687D01*
X141440Y782329D01*
X142341Y782908D01*
X143281Y783422D01*
X144256Y783867D01*
X145260Y784241D01*
X146288Y784543D01*
X147335Y784771D01*
X148396Y784924D01*
X149464Y785000D01*
X150536Y785000D01*
X151604Y784924D01*
X152665Y784771D01*
X153712Y784543D01*
X154740Y784241D01*
X155744Y783867D01*
X156719Y783422D01*
X157659Y782908D01*
X158560Y782329D01*
X159418Y781687D01*
X160228Y780985D01*
X160985Y780228D01*
X161687Y779418D01*
X162329Y778560D01*
X162908Y777659D01*
X163422Y776719D01*
X163867Y775744D01*
X164241Y774740D01*
X164543Y773712D01*
X164771Y772665D01*
X164924Y771604D01*
X165000Y770536D01*
X165000Y769464D01*
X165000Y9464D02*
X164924Y8396D01*
X164771Y7335D01*
X164543Y6288D01*
X164241Y5260D01*
X163867Y4256D01*
X163422Y3281D01*
X162908Y2341D01*
X162329Y1440D01*
X161687Y582D01*
X160985Y-228D01*
X160228Y-985D01*
X159418Y-1687D01*
X158560Y-2329D01*
X157659Y-2908D01*
X156719Y-3422D01*
X155744Y-3867D01*
X154740Y-4241D01*
X153712Y-4543D01*
X152665Y-4771D01*
X151604Y-4924D01*
X150536Y-5000D01*
X149464Y-5000D01*
X148396Y-4924D01*
X147335Y-4771D01*
X146288Y-4543D01*
X145260Y-4241D01*
X144256Y-3867D01*
X143281Y-3422D01*
X142341Y-2908D01*
X141440Y-2329D01*
X140582Y-1687D01*
X139772Y-985D01*
X139015Y-228D01*
X138313Y582D01*
X137671Y1440D01*
X137092Y2341D01*
X136578Y3281D01*
X136133Y4256D01*
X135759Y5260D01*
X135457Y6288D01*
X135229Y7335D01*
X135076Y8396D01*
X135000Y9464D01*
X135000Y10536D01*
X135076Y11604D01*
X135229Y12665D01*
X135457Y13712D01*
X135759Y14740D01*
X136133Y15744D01*
X136578Y16719D01*
X137092Y17659D01*
X137671Y18560D01*
X138313Y19418D01*
X139015Y20228D01*
X139772Y20985D01*
X140582Y21687D01*
X141440Y22329D01*
X142341Y22908D01*
X143281Y23422D01*
X144256Y23867D01*
X145260Y24241D01*
X146288Y24543D01*
X147335Y24771D01*
X148396Y24924D01*
X149464Y25000D01*
X150536Y25000D01*
X151604Y24924D01*
X152665Y24771D01*
X153712Y24543D01*
X154740Y24241D01*
X155744Y23867D01*
X156719Y23422D01*
X157659Y22908D01*
X158560Y22329D01*
X159418Y21687D01*
X160228Y20985D01*
X160985Y20228D01*
X161687Y19418D01*
X162329Y18560D01*
X162908Y17659D01*
X163422Y16719D01*
X163867Y15744D01*
X164241Y14740D01*
X164543Y13712D01*
X164771Y12665D01*
X164924Y11604D01*
X165000Y10536D01*
X165000Y9464D01*
X1027000Y769464D02*
X1026924Y768396D01*
X1026771Y767335D01*
X1026543Y766288D01*
X1026241Y765260D01*
X1025867Y764256D01*
X1025422Y763281D01*
X1024908Y762341D01*
X1024329Y761440D01*
X1023687Y760582D01*
X1022985Y759772D01*
X1022228Y759015D01*
X1021418Y758313D01*
X1020560Y757671D01*
X1019659Y757092D01*
X1018719Y756578D01*
X1017744Y756133D01*
X1016740Y755759D01*
X1015712Y755457D01*
X1014665Y755229D01*
X1013604Y755076D01*
X1012536Y755000D01*
X1011464Y755000D01*
X1010396Y755076D01*
X1009335Y755229D01*
X1008288Y755457D01*
X1007260Y755759D01*
X1006256Y756133D01*
X1005281Y756578D01*
X1004341Y757092D01*
X1003440Y757671D01*
X1002582Y758313D01*
X1001772Y759015D01*
X1001015Y759772D01*
X1000313Y760582D01*
X999671Y761440D01*
X999092Y762341D01*
X998578Y763281D01*
X998133Y764256D01*
X997759Y765260D01*
X997457Y766288D01*
X997229Y767335D01*
X997076Y768396D01*
X997000Y769464D01*
X997000Y770536D01*
X997076Y771604D01*
X997229Y772665D01*
X997457Y773712D01*
X997759Y774740D01*
X998133Y775744D01*
X998578Y776719D01*
X999092Y777659D01*
X999671Y778560D01*
X1000313Y779418D01*
X1001015Y780228D01*
X1001772Y780985D01*
X1002582Y781687D01*
X1003440Y782329D01*
X1004341Y782908D01*
X1005281Y783422D01*
X1006256Y783867D01*
X1007260Y784241D01*
X1008288Y784543D01*
X1009335Y784771D01*
X1010396Y784924D01*
X1011464Y785000D01*
X1012536Y785000D01*
X1013604Y784924D01*
X1014665Y784771D01*
X1015712Y784543D01*
X1016740Y784241D01*
X1017744Y783867D01*
X1018719Y783422D01*
X1019659Y782908D01*
X1020560Y782329D01*
X1021418Y781687D01*
X1022228Y780985D01*
X1022985Y780228D01*
X1023687Y779418D01*
X1024329Y778560D01*
X1024908Y777659D01*
X1025422Y776719D01*
X1025867Y775744D01*
X1026241Y774740D01*
X1026543Y773712D01*
X1026771Y772665D01*
X1026924Y771604D01*
X1027000Y770536D01*
X1027000Y769464D01*
X1025000Y9464D02*
X1024924Y8396D01*
X1024771Y7335D01*
X1024543Y6288D01*
X1024241Y5260D01*
X1023867Y4256D01*
X1023422Y3281D01*
X1022908Y2341D01*
X1022329Y1440D01*
X1021687Y582D01*
X1020985Y-228D01*
X1020228Y-985D01*
X1019418Y-1687D01*
X1018560Y-2329D01*
X1017659Y-2908D01*
X1016719Y-3422D01*
X1015744Y-3867D01*
X1014740Y-4241D01*
X1013712Y-4543D01*
X1012665Y-4771D01*
X1011604Y-4924D01*
X1010536Y-5000D01*
X1009464Y-5000D01*
X1008396Y-4924D01*
X1007335Y-4771D01*
X1006288Y-4543D01*
X1005260Y-4241D01*
X1004256Y-3867D01*
X1003281Y-3422D01*
X1002341Y-2908D01*
X1001440Y-2329D01*
X1000582Y-1687D01*
X999772Y-985D01*
X999015Y-228D01*
X998313Y582D01*
X997671Y1440D01*
X997092Y2341D01*
X996578Y3281D01*
X996133Y4256D01*
X995759Y5260D01*
X995457Y6288D01*
X995229Y7335D01*
X995076Y8396D01*
X995000Y9464D01*
X995000Y10536D01*
X995076Y11604D01*
X995229Y12665D01*
X995457Y13712D01*
X995759Y14740D01*
X996133Y15744D01*
X996578Y16719D01*
X997092Y17659D01*
X997671Y18560D01*
X998313Y19418D01*
X999015Y20228D01*
X999772Y20985D01*
X1000582Y21687D01*
X1001440Y22329D01*
X1002341Y22908D01*
X1003281Y23422D01*
X1004256Y23867D01*
X1005260Y24241D01*
X1006288Y24543D01*
X1007335Y24771D01*
X1008396Y24924D01*
X1009464Y25000D01*
X1010536Y25000D01*
X1011604Y24924D01*
X1012665Y24771D01*
X1013712Y24543D01*
X1014740Y24241D01*
X1015744Y23867D01*
X1016719Y23422D01*
X1017659Y22908D01*
X1018560Y22329D01*
X1019418Y21687D01*
X1020228Y20985D01*
X1020985Y20228D01*
X1021687Y19418D01*
X1022329Y18560D01*
X1022908Y17659D01*
X1023422Y16719D01*
X1023867Y15744D01*
X1024241Y14740D01*
X1024543Y13712D01*
X1024771Y12665D01*
X1024924Y11604D01*
X1025000Y10536D01*
X1025000Y9464D01*
M02*
