G04 EAGLE Gerber X2 export*
%TF.Part,Single*%
%TF.FileFunction,Legend,Bot,1*%
%TF.FilePolarity,Positive*%
%TF.GenerationSoftware,Autodesk,EAGLE,9.0.0*%
%TF.CreationDate,2019-09-24T12:48:38Z*%
G75*
%MOMM*%
%FSLAX34Y34*%
%LPD*%
%AMOC8*
5,1,8,0,0,1.08239X$1,22.5*%
G01*
%ADD10C,0.152400*%
%ADD11C,0.050800*%
%ADD12C,0.177800*%


D10*
X897590Y742982D02*
X892171Y759238D01*
X886753Y742982D01*
X888107Y747046D02*
X896235Y747046D01*
X877483Y742982D02*
X873870Y742982D01*
X877483Y742982D02*
X877601Y742984D01*
X877719Y742990D01*
X877837Y742999D01*
X877954Y743013D01*
X878071Y743030D01*
X878188Y743051D01*
X878303Y743076D01*
X878418Y743105D01*
X878532Y743138D01*
X878644Y743174D01*
X878755Y743214D01*
X878865Y743257D01*
X878974Y743304D01*
X879081Y743354D01*
X879186Y743409D01*
X879289Y743466D01*
X879390Y743527D01*
X879490Y743591D01*
X879587Y743658D01*
X879682Y743728D01*
X879774Y743802D01*
X879865Y743878D01*
X879952Y743958D01*
X880037Y744040D01*
X880119Y744125D01*
X880199Y744212D01*
X880275Y744303D01*
X880349Y744395D01*
X880419Y744490D01*
X880486Y744587D01*
X880550Y744687D01*
X880611Y744788D01*
X880668Y744891D01*
X880723Y744996D01*
X880773Y745103D01*
X880820Y745212D01*
X880863Y745322D01*
X880903Y745433D01*
X880939Y745545D01*
X880972Y745659D01*
X881001Y745774D01*
X881026Y745889D01*
X881047Y746006D01*
X881064Y746123D01*
X881078Y746240D01*
X881087Y746358D01*
X881093Y746476D01*
X881095Y746594D01*
X881095Y755626D01*
X881093Y755744D01*
X881087Y755862D01*
X881078Y755980D01*
X881064Y756097D01*
X881047Y756214D01*
X881026Y756331D01*
X881001Y756446D01*
X880972Y756561D01*
X880939Y756675D01*
X880903Y756787D01*
X880863Y756898D01*
X880820Y757008D01*
X880773Y757117D01*
X880723Y757224D01*
X880668Y757329D01*
X880611Y757432D01*
X880550Y757533D01*
X880486Y757633D01*
X880419Y757730D01*
X880349Y757825D01*
X880275Y757917D01*
X880199Y758008D01*
X880119Y758095D01*
X880037Y758180D01*
X879952Y758262D01*
X879865Y758342D01*
X879774Y758418D01*
X879682Y758492D01*
X879587Y758562D01*
X879490Y758629D01*
X879390Y758693D01*
X879289Y758754D01*
X879186Y758811D01*
X879081Y758866D01*
X878974Y758916D01*
X878865Y758963D01*
X878755Y759006D01*
X878644Y759046D01*
X878532Y759082D01*
X878418Y759115D01*
X878303Y759144D01*
X878188Y759169D01*
X878071Y759190D01*
X877954Y759207D01*
X877837Y759221D01*
X877719Y759230D01*
X877601Y759236D01*
X877483Y759238D01*
X873870Y759238D01*
X858304Y759238D02*
X858304Y742982D01*
X860110Y742982D02*
X856497Y742982D01*
X856497Y759238D02*
X860110Y759238D01*
X849793Y759238D02*
X849793Y742982D01*
X840762Y742982D02*
X849793Y759238D01*
X840762Y759238D02*
X840762Y742982D01*
X708953Y742982D02*
X703534Y759238D01*
X698115Y742982D01*
X699470Y747046D02*
X707598Y747046D01*
X688845Y742982D02*
X685233Y742982D01*
X688845Y742982D02*
X688963Y742984D01*
X689081Y742990D01*
X689199Y742999D01*
X689316Y743013D01*
X689433Y743030D01*
X689550Y743051D01*
X689665Y743076D01*
X689780Y743105D01*
X689894Y743138D01*
X690006Y743174D01*
X690117Y743214D01*
X690227Y743257D01*
X690336Y743304D01*
X690443Y743354D01*
X690548Y743409D01*
X690651Y743466D01*
X690752Y743527D01*
X690852Y743591D01*
X690949Y743658D01*
X691044Y743728D01*
X691136Y743802D01*
X691227Y743878D01*
X691314Y743958D01*
X691399Y744040D01*
X691481Y744125D01*
X691561Y744212D01*
X691637Y744303D01*
X691711Y744395D01*
X691781Y744490D01*
X691848Y744587D01*
X691912Y744687D01*
X691973Y744788D01*
X692030Y744891D01*
X692085Y744996D01*
X692135Y745103D01*
X692182Y745212D01*
X692225Y745322D01*
X692265Y745433D01*
X692301Y745545D01*
X692334Y745659D01*
X692363Y745774D01*
X692388Y745889D01*
X692409Y746006D01*
X692426Y746123D01*
X692440Y746240D01*
X692449Y746358D01*
X692455Y746476D01*
X692457Y746594D01*
X692458Y746594D02*
X692458Y755626D01*
X692457Y755626D02*
X692455Y755744D01*
X692449Y755862D01*
X692440Y755980D01*
X692426Y756097D01*
X692409Y756214D01*
X692388Y756331D01*
X692363Y756446D01*
X692334Y756561D01*
X692301Y756675D01*
X692265Y756787D01*
X692225Y756898D01*
X692182Y757008D01*
X692135Y757117D01*
X692085Y757224D01*
X692030Y757329D01*
X691973Y757432D01*
X691912Y757533D01*
X691848Y757633D01*
X691781Y757730D01*
X691711Y757825D01*
X691637Y757917D01*
X691561Y758008D01*
X691481Y758095D01*
X691399Y758180D01*
X691314Y758262D01*
X691227Y758342D01*
X691136Y758418D01*
X691044Y758492D01*
X690949Y758562D01*
X690852Y758629D01*
X690752Y758693D01*
X690651Y758754D01*
X690548Y758811D01*
X690443Y758866D01*
X690336Y758916D01*
X690227Y758963D01*
X690117Y759006D01*
X690006Y759046D01*
X689894Y759082D01*
X689780Y759115D01*
X689665Y759144D01*
X689550Y759169D01*
X689433Y759190D01*
X689316Y759207D01*
X689199Y759221D01*
X689081Y759230D01*
X688963Y759236D01*
X688845Y759238D01*
X685233Y759238D01*
X671056Y754722D02*
X671056Y747498D01*
X671056Y754722D02*
X671054Y754855D01*
X671048Y754987D01*
X671038Y755119D01*
X671025Y755251D01*
X671007Y755383D01*
X670986Y755513D01*
X670961Y755644D01*
X670932Y755773D01*
X670899Y755901D01*
X670863Y756029D01*
X670823Y756155D01*
X670779Y756280D01*
X670731Y756404D01*
X670680Y756526D01*
X670625Y756647D01*
X670567Y756766D01*
X670505Y756884D01*
X670440Y756999D01*
X670371Y757113D01*
X670300Y757224D01*
X670224Y757333D01*
X670146Y757440D01*
X670065Y757545D01*
X669980Y757647D01*
X669893Y757747D01*
X669803Y757844D01*
X669710Y757939D01*
X669614Y758030D01*
X669516Y758119D01*
X669415Y758205D01*
X669311Y758288D01*
X669205Y758368D01*
X669097Y758444D01*
X668987Y758518D01*
X668874Y758588D01*
X668760Y758655D01*
X668643Y758718D01*
X668525Y758778D01*
X668405Y758835D01*
X668283Y758888D01*
X668160Y758937D01*
X668036Y758983D01*
X667910Y759025D01*
X667783Y759063D01*
X667655Y759098D01*
X667526Y759129D01*
X667397Y759156D01*
X667266Y759179D01*
X667135Y759199D01*
X667003Y759214D01*
X666871Y759226D01*
X666739Y759234D01*
X666606Y759238D01*
X666474Y759238D01*
X666341Y759234D01*
X666209Y759226D01*
X666077Y759214D01*
X665945Y759199D01*
X665814Y759179D01*
X665683Y759156D01*
X665554Y759129D01*
X665425Y759098D01*
X665297Y759063D01*
X665170Y759025D01*
X665044Y758983D01*
X664920Y758937D01*
X664797Y758888D01*
X664675Y758835D01*
X664555Y758778D01*
X664437Y758718D01*
X664320Y758655D01*
X664206Y758588D01*
X664093Y758518D01*
X663983Y758444D01*
X663875Y758368D01*
X663769Y758288D01*
X663665Y758205D01*
X663564Y758119D01*
X663466Y758030D01*
X663370Y757939D01*
X663277Y757844D01*
X663187Y757747D01*
X663100Y757647D01*
X663015Y757545D01*
X662934Y757440D01*
X662856Y757333D01*
X662780Y757224D01*
X662709Y757113D01*
X662640Y756999D01*
X662575Y756884D01*
X662513Y756766D01*
X662455Y756647D01*
X662400Y756526D01*
X662349Y756404D01*
X662301Y756280D01*
X662257Y756155D01*
X662217Y756029D01*
X662181Y755901D01*
X662148Y755773D01*
X662119Y755644D01*
X662094Y755513D01*
X662073Y755383D01*
X662055Y755251D01*
X662042Y755119D01*
X662032Y754987D01*
X662026Y754855D01*
X662024Y754722D01*
X662025Y754722D02*
X662025Y747498D01*
X662024Y747498D02*
X662026Y747365D01*
X662032Y747233D01*
X662042Y747101D01*
X662055Y746969D01*
X662073Y746837D01*
X662094Y746707D01*
X662119Y746576D01*
X662148Y746447D01*
X662181Y746319D01*
X662217Y746191D01*
X662257Y746065D01*
X662301Y745940D01*
X662349Y745816D01*
X662400Y745694D01*
X662455Y745573D01*
X662513Y745454D01*
X662575Y745336D01*
X662640Y745221D01*
X662709Y745107D01*
X662780Y744996D01*
X662856Y744887D01*
X662934Y744780D01*
X663015Y744675D01*
X663100Y744573D01*
X663187Y744473D01*
X663277Y744376D01*
X663370Y744281D01*
X663466Y744190D01*
X663564Y744101D01*
X663665Y744015D01*
X663769Y743932D01*
X663875Y743852D01*
X663983Y743776D01*
X664093Y743702D01*
X664206Y743632D01*
X664320Y743565D01*
X664437Y743502D01*
X664555Y743442D01*
X664675Y743385D01*
X664797Y743332D01*
X664920Y743283D01*
X665044Y743237D01*
X665170Y743195D01*
X665297Y743157D01*
X665425Y743122D01*
X665554Y743091D01*
X665683Y743064D01*
X665814Y743041D01*
X665945Y743021D01*
X666077Y743006D01*
X666209Y742994D01*
X666341Y742986D01*
X666474Y742982D01*
X666606Y742982D01*
X666739Y742986D01*
X666871Y742994D01*
X667003Y743006D01*
X667135Y743021D01*
X667266Y743041D01*
X667397Y743064D01*
X667526Y743091D01*
X667655Y743122D01*
X667783Y743157D01*
X667910Y743195D01*
X668036Y743237D01*
X668160Y743283D01*
X668283Y743332D01*
X668405Y743385D01*
X668525Y743442D01*
X668643Y743502D01*
X668760Y743565D01*
X668874Y743632D01*
X668987Y743702D01*
X669097Y743776D01*
X669205Y743852D01*
X669311Y743932D01*
X669415Y744015D01*
X669516Y744101D01*
X669614Y744190D01*
X669710Y744281D01*
X669803Y744376D01*
X669893Y744473D01*
X669980Y744573D01*
X670065Y744675D01*
X670146Y744780D01*
X670224Y744887D01*
X670300Y744996D01*
X670371Y745107D01*
X670440Y745221D01*
X670505Y745336D01*
X670567Y745454D01*
X670625Y745573D01*
X670680Y745694D01*
X670731Y745816D01*
X670779Y745940D01*
X670823Y746065D01*
X670863Y746191D01*
X670899Y746319D01*
X670932Y746447D01*
X670961Y746576D01*
X670986Y746707D01*
X671007Y746837D01*
X671025Y746969D01*
X671038Y747101D01*
X671048Y747233D01*
X671054Y747365D01*
X671056Y747498D01*
X654903Y747498D02*
X654903Y759238D01*
X654904Y747498D02*
X654902Y747365D01*
X654896Y747233D01*
X654886Y747101D01*
X654873Y746969D01*
X654855Y746837D01*
X654834Y746707D01*
X654809Y746576D01*
X654780Y746447D01*
X654747Y746319D01*
X654711Y746191D01*
X654671Y746065D01*
X654627Y745940D01*
X654579Y745816D01*
X654528Y745694D01*
X654473Y745573D01*
X654415Y745454D01*
X654353Y745336D01*
X654288Y745221D01*
X654219Y745107D01*
X654148Y744996D01*
X654072Y744887D01*
X653994Y744780D01*
X653913Y744675D01*
X653828Y744573D01*
X653741Y744473D01*
X653651Y744376D01*
X653558Y744281D01*
X653462Y744190D01*
X653364Y744101D01*
X653263Y744015D01*
X653159Y743932D01*
X653053Y743852D01*
X652945Y743776D01*
X652835Y743702D01*
X652722Y743632D01*
X652608Y743565D01*
X652491Y743502D01*
X652373Y743442D01*
X652253Y743385D01*
X652131Y743332D01*
X652008Y743283D01*
X651884Y743237D01*
X651758Y743195D01*
X651631Y743157D01*
X651503Y743122D01*
X651374Y743091D01*
X651245Y743064D01*
X651114Y743041D01*
X650983Y743021D01*
X650851Y743006D01*
X650719Y742994D01*
X650587Y742986D01*
X650454Y742982D01*
X650322Y742982D01*
X650189Y742986D01*
X650057Y742994D01*
X649925Y743006D01*
X649793Y743021D01*
X649662Y743041D01*
X649531Y743064D01*
X649402Y743091D01*
X649273Y743122D01*
X649145Y743157D01*
X649018Y743195D01*
X648892Y743237D01*
X648768Y743283D01*
X648645Y743332D01*
X648523Y743385D01*
X648403Y743442D01*
X648285Y743502D01*
X648168Y743565D01*
X648054Y743632D01*
X647941Y743702D01*
X647831Y743776D01*
X647723Y743852D01*
X647617Y743932D01*
X647513Y744015D01*
X647412Y744101D01*
X647314Y744190D01*
X647218Y744281D01*
X647125Y744376D01*
X647035Y744473D01*
X646948Y744573D01*
X646863Y744675D01*
X646782Y744780D01*
X646704Y744887D01*
X646628Y744996D01*
X646557Y745107D01*
X646488Y745221D01*
X646423Y745336D01*
X646361Y745454D01*
X646303Y745573D01*
X646248Y745694D01*
X646197Y745816D01*
X646149Y745940D01*
X646105Y746065D01*
X646065Y746191D01*
X646029Y746319D01*
X645996Y746447D01*
X645967Y746576D01*
X645942Y746707D01*
X645921Y746837D01*
X645903Y746969D01*
X645890Y747101D01*
X645880Y747233D01*
X645874Y747365D01*
X645872Y747498D01*
X645872Y759238D01*
X635278Y759238D02*
X635278Y742982D01*
X639793Y759238D02*
X630762Y759238D01*
D11*
X384158Y429889D02*
X384158Y428337D01*
X384158Y429889D02*
X384160Y429966D01*
X384166Y430044D01*
X384175Y430120D01*
X384189Y430197D01*
X384206Y430272D01*
X384227Y430346D01*
X384252Y430420D01*
X384280Y430492D01*
X384312Y430562D01*
X384347Y430631D01*
X384386Y430698D01*
X384428Y430763D01*
X384473Y430826D01*
X384521Y430887D01*
X384572Y430945D01*
X384626Y431000D01*
X384683Y431053D01*
X384742Y431102D01*
X384804Y431149D01*
X384868Y431193D01*
X384934Y431233D01*
X385002Y431270D01*
X385072Y431304D01*
X385143Y431334D01*
X385216Y431360D01*
X385290Y431383D01*
X385365Y431402D01*
X385440Y431417D01*
X385517Y431429D01*
X385594Y431437D01*
X385671Y431441D01*
X385749Y431441D01*
X385826Y431437D01*
X385903Y431429D01*
X385980Y431417D01*
X386055Y431402D01*
X386130Y431383D01*
X386204Y431360D01*
X386277Y431334D01*
X386348Y431304D01*
X386418Y431270D01*
X386486Y431233D01*
X386552Y431193D01*
X386616Y431149D01*
X386678Y431102D01*
X386737Y431053D01*
X386794Y431000D01*
X386848Y430945D01*
X386899Y430887D01*
X386947Y430826D01*
X386992Y430763D01*
X387034Y430698D01*
X387073Y430631D01*
X387108Y430562D01*
X387140Y430492D01*
X387168Y430420D01*
X387193Y430346D01*
X387214Y430272D01*
X387231Y430197D01*
X387245Y430120D01*
X387254Y430044D01*
X387260Y429966D01*
X387262Y429889D01*
X389746Y430200D02*
X389746Y428337D01*
X389746Y430200D02*
X389744Y430270D01*
X389738Y430339D01*
X389728Y430408D01*
X389715Y430476D01*
X389697Y430544D01*
X389676Y430610D01*
X389651Y430675D01*
X389623Y430739D01*
X389591Y430801D01*
X389556Y430861D01*
X389517Y430919D01*
X389475Y430974D01*
X389430Y431028D01*
X389382Y431078D01*
X389332Y431126D01*
X389278Y431171D01*
X389223Y431213D01*
X389165Y431252D01*
X389105Y431287D01*
X389043Y431319D01*
X388979Y431347D01*
X388914Y431372D01*
X388848Y431393D01*
X388780Y431411D01*
X388712Y431424D01*
X388643Y431434D01*
X388574Y431440D01*
X388504Y431442D01*
X388434Y431440D01*
X388365Y431434D01*
X388296Y431424D01*
X388228Y431411D01*
X388160Y431393D01*
X388094Y431372D01*
X388029Y431347D01*
X387965Y431319D01*
X387903Y431287D01*
X387843Y431252D01*
X387785Y431213D01*
X387730Y431171D01*
X387676Y431126D01*
X387626Y431078D01*
X387578Y431028D01*
X387533Y430974D01*
X387491Y430919D01*
X387452Y430861D01*
X387417Y430801D01*
X387385Y430739D01*
X387357Y430675D01*
X387332Y430610D01*
X387311Y430544D01*
X387293Y430476D01*
X387280Y430408D01*
X387270Y430339D01*
X387264Y430270D01*
X387262Y430200D01*
X387262Y428958D01*
X386952Y433823D02*
X387083Y433825D01*
X387213Y433830D01*
X387343Y433840D01*
X387473Y433853D01*
X387603Y433869D01*
X387732Y433889D01*
X387860Y433913D01*
X387987Y433941D01*
X388114Y433972D01*
X388240Y434007D01*
X388365Y434045D01*
X388489Y434087D01*
X388611Y434132D01*
X388732Y434181D01*
X388852Y434233D01*
X388970Y434289D01*
X389030Y434312D01*
X389090Y434338D01*
X389147Y434367D01*
X389203Y434400D01*
X389257Y434436D01*
X389309Y434474D01*
X389359Y434516D01*
X389406Y434560D01*
X389451Y434607D01*
X389493Y434657D01*
X389532Y434708D01*
X389568Y434762D01*
X389601Y434818D01*
X389631Y434875D01*
X389658Y434934D01*
X389681Y434995D01*
X389701Y435056D01*
X389717Y435119D01*
X389730Y435183D01*
X389739Y435247D01*
X389744Y435311D01*
X389746Y435376D01*
X389744Y435441D01*
X389739Y435505D01*
X389730Y435569D01*
X389717Y435633D01*
X389701Y435696D01*
X389681Y435757D01*
X389658Y435818D01*
X389631Y435877D01*
X389601Y435934D01*
X389568Y435990D01*
X389532Y436044D01*
X389493Y436095D01*
X389451Y436145D01*
X389406Y436192D01*
X389359Y436236D01*
X389309Y436278D01*
X389257Y436316D01*
X389203Y436352D01*
X389147Y436385D01*
X389090Y436414D01*
X389030Y436440D01*
X388970Y436463D01*
X388970Y436462D02*
X388852Y436518D01*
X388732Y436570D01*
X388611Y436619D01*
X388489Y436664D01*
X388365Y436706D01*
X388240Y436744D01*
X388114Y436779D01*
X387988Y436810D01*
X387860Y436838D01*
X387732Y436862D01*
X387603Y436882D01*
X387473Y436898D01*
X387343Y436911D01*
X387213Y436921D01*
X387083Y436926D01*
X386952Y436928D01*
X386952Y433823D02*
X386821Y433825D01*
X386691Y433830D01*
X386561Y433840D01*
X386431Y433853D01*
X386301Y433869D01*
X386172Y433889D01*
X386044Y433913D01*
X385917Y433941D01*
X385790Y433972D01*
X385664Y434007D01*
X385539Y434045D01*
X385415Y434087D01*
X385293Y434132D01*
X385172Y434181D01*
X385052Y434233D01*
X384934Y434289D01*
X384874Y434312D01*
X384814Y434338D01*
X384757Y434367D01*
X384701Y434400D01*
X384647Y434436D01*
X384595Y434474D01*
X384545Y434516D01*
X384498Y434560D01*
X384453Y434607D01*
X384411Y434657D01*
X384372Y434708D01*
X384336Y434762D01*
X384303Y434818D01*
X384273Y434875D01*
X384246Y434934D01*
X384223Y434995D01*
X384203Y435056D01*
X384187Y435119D01*
X384174Y435183D01*
X384165Y435247D01*
X384160Y435311D01*
X384158Y435376D01*
X384934Y436462D02*
X385052Y436518D01*
X385172Y436570D01*
X385293Y436619D01*
X385415Y436664D01*
X385539Y436706D01*
X385664Y436744D01*
X385790Y436779D01*
X385916Y436810D01*
X386044Y436838D01*
X386172Y436862D01*
X386301Y436882D01*
X386431Y436898D01*
X386561Y436911D01*
X386691Y436921D01*
X386821Y436926D01*
X386952Y436928D01*
X384934Y436463D02*
X384874Y436440D01*
X384814Y436414D01*
X384757Y436385D01*
X384701Y436352D01*
X384647Y436316D01*
X384595Y436278D01*
X384545Y436236D01*
X384498Y436192D01*
X384453Y436145D01*
X384411Y436095D01*
X384372Y436044D01*
X384336Y435990D01*
X384303Y435934D01*
X384273Y435877D01*
X384246Y435818D01*
X384223Y435757D01*
X384203Y435696D01*
X384187Y435633D01*
X384174Y435569D01*
X384165Y435505D01*
X384160Y435441D01*
X384158Y435376D01*
X385400Y434134D02*
X388504Y436617D01*
X389746Y441017D02*
X389744Y441090D01*
X389738Y441163D01*
X389729Y441236D01*
X389715Y441307D01*
X389698Y441379D01*
X389678Y441449D01*
X389653Y441518D01*
X389625Y441585D01*
X389594Y441651D01*
X389559Y441716D01*
X389521Y441778D01*
X389479Y441838D01*
X389435Y441896D01*
X389387Y441952D01*
X389337Y442005D01*
X389284Y442055D01*
X389228Y442103D01*
X389170Y442147D01*
X389110Y442189D01*
X389048Y442227D01*
X388983Y442262D01*
X388917Y442293D01*
X388850Y442321D01*
X388781Y442346D01*
X388711Y442366D01*
X388639Y442383D01*
X388568Y442397D01*
X388495Y442406D01*
X388422Y442412D01*
X388349Y442414D01*
X389746Y441017D02*
X389744Y440933D01*
X389738Y440850D01*
X389729Y440767D01*
X389715Y440685D01*
X389698Y440603D01*
X389676Y440522D01*
X389651Y440442D01*
X389623Y440364D01*
X389591Y440286D01*
X389555Y440211D01*
X389516Y440137D01*
X389473Y440065D01*
X389427Y439995D01*
X389378Y439928D01*
X389325Y439862D01*
X389270Y439800D01*
X389212Y439740D01*
X389151Y439682D01*
X389088Y439628D01*
X389022Y439576D01*
X388954Y439528D01*
X388883Y439483D01*
X388811Y439441D01*
X388736Y439403D01*
X388660Y439368D01*
X388583Y439337D01*
X388504Y439309D01*
X387263Y441948D02*
X387316Y442002D01*
X387373Y442053D01*
X387432Y442101D01*
X387493Y442146D01*
X387556Y442187D01*
X387622Y442226D01*
X387689Y442261D01*
X387758Y442293D01*
X387829Y442321D01*
X387900Y442345D01*
X387973Y442366D01*
X388047Y442383D01*
X388122Y442397D01*
X388197Y442406D01*
X388273Y442412D01*
X388349Y442414D01*
X387262Y441948D02*
X384158Y439310D01*
X384158Y442414D01*
X388504Y444796D02*
X389746Y446348D01*
X384158Y446348D01*
X384158Y444796D02*
X384158Y447900D01*
X384158Y452898D02*
X389746Y454761D01*
X384158Y456623D01*
X385555Y456158D02*
X385555Y453364D01*
X384158Y462807D02*
X389746Y462807D01*
X389746Y461255D02*
X389746Y464360D01*
X389746Y466642D02*
X384158Y466642D01*
X389746Y466642D02*
X389746Y468194D01*
X389744Y468271D01*
X389738Y468349D01*
X389729Y468425D01*
X389715Y468502D01*
X389698Y468577D01*
X389677Y468651D01*
X389652Y468725D01*
X389624Y468797D01*
X389592Y468867D01*
X389557Y468936D01*
X389518Y469003D01*
X389476Y469068D01*
X389431Y469131D01*
X389383Y469192D01*
X389332Y469250D01*
X389278Y469305D01*
X389221Y469358D01*
X389162Y469407D01*
X389100Y469454D01*
X389036Y469498D01*
X388970Y469538D01*
X388902Y469575D01*
X388832Y469609D01*
X388761Y469639D01*
X388688Y469665D01*
X388614Y469688D01*
X388539Y469707D01*
X388464Y469722D01*
X388387Y469734D01*
X388310Y469742D01*
X388233Y469746D01*
X388155Y469746D01*
X388078Y469742D01*
X388001Y469734D01*
X387924Y469722D01*
X387849Y469707D01*
X387774Y469688D01*
X387700Y469665D01*
X387627Y469639D01*
X387556Y469609D01*
X387486Y469575D01*
X387418Y469538D01*
X387352Y469498D01*
X387288Y469454D01*
X387226Y469407D01*
X387167Y469358D01*
X387110Y469305D01*
X387056Y469250D01*
X387005Y469192D01*
X386957Y469131D01*
X386912Y469068D01*
X386870Y469003D01*
X386831Y468936D01*
X386796Y468867D01*
X386764Y468797D01*
X386736Y468725D01*
X386711Y468651D01*
X386690Y468577D01*
X386673Y468502D01*
X386659Y468425D01*
X386650Y468349D01*
X386644Y468271D01*
X386642Y468194D01*
X386642Y466642D01*
X557883Y315842D02*
X559746Y310254D01*
X556021Y310254D02*
X557883Y315842D01*
X556486Y311651D02*
X559280Y311651D01*
X553949Y313048D02*
X553947Y313179D01*
X553942Y313309D01*
X553932Y313439D01*
X553919Y313569D01*
X553903Y313699D01*
X553883Y313828D01*
X553859Y313956D01*
X553831Y314083D01*
X553800Y314210D01*
X553765Y314336D01*
X553727Y314461D01*
X553685Y314585D01*
X553640Y314707D01*
X553591Y314828D01*
X553539Y314948D01*
X553483Y315066D01*
X553484Y315066D02*
X553461Y315126D01*
X553435Y315186D01*
X553406Y315243D01*
X553373Y315299D01*
X553337Y315353D01*
X553299Y315405D01*
X553257Y315455D01*
X553213Y315502D01*
X553166Y315547D01*
X553116Y315589D01*
X553065Y315628D01*
X553011Y315664D01*
X552955Y315697D01*
X552898Y315727D01*
X552839Y315754D01*
X552778Y315777D01*
X552717Y315797D01*
X552654Y315813D01*
X552590Y315826D01*
X552526Y315835D01*
X552462Y315840D01*
X552397Y315842D01*
X552332Y315840D01*
X552268Y315835D01*
X552204Y315826D01*
X552140Y315813D01*
X552077Y315797D01*
X552016Y315777D01*
X551955Y315754D01*
X551896Y315727D01*
X551839Y315697D01*
X551783Y315664D01*
X551729Y315628D01*
X551678Y315589D01*
X551628Y315547D01*
X551581Y315502D01*
X551537Y315455D01*
X551495Y315405D01*
X551457Y315353D01*
X551421Y315299D01*
X551388Y315243D01*
X551359Y315186D01*
X551333Y315126D01*
X551310Y315066D01*
X551254Y314948D01*
X551202Y314828D01*
X551153Y314707D01*
X551108Y314585D01*
X551066Y314461D01*
X551028Y314336D01*
X550993Y314210D01*
X550962Y314084D01*
X550934Y313956D01*
X550910Y313828D01*
X550890Y313699D01*
X550874Y313569D01*
X550861Y313439D01*
X550851Y313309D01*
X550846Y313179D01*
X550844Y313048D01*
X553949Y313048D02*
X553947Y312917D01*
X553942Y312787D01*
X553932Y312657D01*
X553919Y312527D01*
X553903Y312397D01*
X553883Y312269D01*
X553859Y312140D01*
X553831Y312013D01*
X553800Y311886D01*
X553765Y311760D01*
X553727Y311635D01*
X553685Y311512D01*
X553640Y311389D01*
X553591Y311268D01*
X553539Y311148D01*
X553483Y311030D01*
X553484Y311030D02*
X553461Y310970D01*
X553435Y310910D01*
X553406Y310853D01*
X553373Y310797D01*
X553337Y310743D01*
X553299Y310691D01*
X553257Y310641D01*
X553213Y310594D01*
X553166Y310549D01*
X553116Y310507D01*
X553065Y310468D01*
X553011Y310432D01*
X552955Y310399D01*
X552898Y310369D01*
X552839Y310342D01*
X552778Y310319D01*
X552717Y310299D01*
X552654Y310283D01*
X552590Y310270D01*
X552526Y310261D01*
X552462Y310256D01*
X552397Y310254D01*
X551311Y311030D02*
X551255Y311148D01*
X551203Y311268D01*
X551154Y311389D01*
X551109Y311511D01*
X551067Y311635D01*
X551029Y311760D01*
X550994Y311886D01*
X550963Y312012D01*
X550935Y312140D01*
X550911Y312268D01*
X550891Y312397D01*
X550875Y312527D01*
X550862Y312657D01*
X550852Y312787D01*
X550847Y312917D01*
X550845Y313048D01*
X551310Y311030D02*
X551333Y310970D01*
X551359Y310910D01*
X551388Y310853D01*
X551421Y310797D01*
X551457Y310743D01*
X551495Y310691D01*
X551537Y310641D01*
X551581Y310594D01*
X551628Y310549D01*
X551678Y310507D01*
X551729Y310468D01*
X551783Y310432D01*
X551839Y310399D01*
X551896Y310369D01*
X551955Y310342D01*
X552016Y310319D01*
X552077Y310299D01*
X552140Y310283D01*
X552204Y310270D01*
X552268Y310261D01*
X552332Y310256D01*
X552397Y310254D01*
X553639Y311496D02*
X551155Y314600D01*
X544350Y315842D02*
X544350Y310254D01*
X545903Y315842D02*
X542798Y315842D01*
X540516Y315842D02*
X540516Y310254D01*
X540516Y315842D02*
X538964Y315842D01*
X538887Y315840D01*
X538809Y315834D01*
X538733Y315825D01*
X538656Y315811D01*
X538581Y315794D01*
X538507Y315773D01*
X538433Y315748D01*
X538361Y315720D01*
X538291Y315688D01*
X538222Y315653D01*
X538155Y315614D01*
X538090Y315572D01*
X538027Y315527D01*
X537966Y315479D01*
X537908Y315428D01*
X537853Y315374D01*
X537800Y315317D01*
X537751Y315258D01*
X537704Y315196D01*
X537660Y315132D01*
X537620Y315066D01*
X537583Y314998D01*
X537549Y314928D01*
X537519Y314857D01*
X537493Y314784D01*
X537470Y314710D01*
X537451Y314635D01*
X537436Y314560D01*
X537424Y314483D01*
X537416Y314406D01*
X537412Y314329D01*
X537412Y314251D01*
X537416Y314174D01*
X537424Y314097D01*
X537436Y314020D01*
X537451Y313945D01*
X537470Y313870D01*
X537493Y313796D01*
X537519Y313723D01*
X537549Y313652D01*
X537583Y313582D01*
X537620Y313514D01*
X537660Y313448D01*
X537704Y313384D01*
X537751Y313322D01*
X537800Y313263D01*
X537853Y313206D01*
X537908Y313152D01*
X537966Y313101D01*
X538027Y313053D01*
X538090Y313008D01*
X538155Y312966D01*
X538222Y312927D01*
X538291Y312892D01*
X538361Y312860D01*
X538433Y312832D01*
X538507Y312807D01*
X538581Y312786D01*
X538656Y312769D01*
X538733Y312755D01*
X538809Y312746D01*
X538887Y312740D01*
X538964Y312738D01*
X540516Y312738D01*
X739746Y340254D02*
X739746Y345842D01*
X738194Y345842D01*
X738117Y345840D01*
X738039Y345834D01*
X737963Y345825D01*
X737886Y345811D01*
X737811Y345794D01*
X737737Y345773D01*
X737663Y345748D01*
X737591Y345720D01*
X737521Y345688D01*
X737452Y345653D01*
X737385Y345614D01*
X737320Y345572D01*
X737257Y345527D01*
X737196Y345479D01*
X737138Y345428D01*
X737083Y345374D01*
X737030Y345317D01*
X736981Y345258D01*
X736934Y345196D01*
X736890Y345132D01*
X736850Y345066D01*
X736813Y344998D01*
X736779Y344928D01*
X736749Y344857D01*
X736723Y344784D01*
X736700Y344710D01*
X736681Y344635D01*
X736666Y344560D01*
X736654Y344483D01*
X736646Y344406D01*
X736642Y344329D01*
X736642Y344251D01*
X736646Y344174D01*
X736654Y344097D01*
X736666Y344020D01*
X736681Y343945D01*
X736700Y343870D01*
X736723Y343796D01*
X736749Y343723D01*
X736779Y343652D01*
X736813Y343582D01*
X736850Y343514D01*
X736890Y343448D01*
X736934Y343384D01*
X736981Y343322D01*
X737030Y343263D01*
X737083Y343206D01*
X737138Y343152D01*
X737196Y343101D01*
X737257Y343053D01*
X737320Y343008D01*
X737385Y342966D01*
X737452Y342927D01*
X737521Y342892D01*
X737591Y342860D01*
X737663Y342832D01*
X737737Y342807D01*
X737811Y342786D01*
X737886Y342769D01*
X737963Y342755D01*
X738039Y342746D01*
X738117Y342740D01*
X738194Y342738D01*
X739746Y342738D01*
X733300Y340254D02*
X732058Y340254D01*
X733300Y340254D02*
X733370Y340256D01*
X733439Y340262D01*
X733508Y340272D01*
X733576Y340285D01*
X733644Y340303D01*
X733710Y340324D01*
X733775Y340349D01*
X733839Y340377D01*
X733901Y340409D01*
X733961Y340444D01*
X734019Y340483D01*
X734074Y340525D01*
X734128Y340570D01*
X734178Y340618D01*
X734226Y340668D01*
X734271Y340722D01*
X734313Y340777D01*
X734352Y340835D01*
X734387Y340895D01*
X734419Y340957D01*
X734447Y341021D01*
X734472Y341086D01*
X734493Y341152D01*
X734511Y341220D01*
X734524Y341288D01*
X734534Y341357D01*
X734540Y341426D01*
X734542Y341496D01*
X734542Y344600D01*
X734540Y344670D01*
X734534Y344739D01*
X734524Y344808D01*
X734511Y344876D01*
X734493Y344944D01*
X734472Y345010D01*
X734447Y345075D01*
X734419Y345139D01*
X734387Y345201D01*
X734352Y345261D01*
X734313Y345319D01*
X734271Y345374D01*
X734226Y345428D01*
X734178Y345478D01*
X734128Y345526D01*
X734074Y345571D01*
X734019Y345613D01*
X733961Y345652D01*
X733901Y345687D01*
X733839Y345719D01*
X733775Y345747D01*
X733710Y345772D01*
X733644Y345793D01*
X733576Y345811D01*
X733508Y345824D01*
X733439Y345834D01*
X733370Y345840D01*
X733300Y345842D01*
X732058Y345842D01*
X729953Y341806D02*
X729951Y341883D01*
X729945Y341961D01*
X729936Y342037D01*
X729922Y342114D01*
X729905Y342189D01*
X729884Y342263D01*
X729859Y342337D01*
X729831Y342409D01*
X729799Y342479D01*
X729764Y342548D01*
X729725Y342615D01*
X729683Y342680D01*
X729638Y342743D01*
X729590Y342804D01*
X729539Y342862D01*
X729485Y342917D01*
X729428Y342970D01*
X729369Y343019D01*
X729307Y343066D01*
X729243Y343110D01*
X729177Y343150D01*
X729109Y343187D01*
X729039Y343221D01*
X728968Y343251D01*
X728895Y343277D01*
X728821Y343300D01*
X728746Y343319D01*
X728671Y343334D01*
X728594Y343346D01*
X728517Y343354D01*
X728440Y343358D01*
X728362Y343358D01*
X728285Y343354D01*
X728208Y343346D01*
X728131Y343334D01*
X728056Y343319D01*
X727981Y343300D01*
X727907Y343277D01*
X727834Y343251D01*
X727763Y343221D01*
X727693Y343187D01*
X727625Y343150D01*
X727559Y343110D01*
X727495Y343066D01*
X727433Y343019D01*
X727374Y342970D01*
X727317Y342917D01*
X727263Y342862D01*
X727212Y342804D01*
X727164Y342743D01*
X727119Y342680D01*
X727077Y342615D01*
X727038Y342548D01*
X727003Y342479D01*
X726971Y342409D01*
X726943Y342337D01*
X726918Y342263D01*
X726897Y342189D01*
X726880Y342114D01*
X726866Y342037D01*
X726857Y341961D01*
X726851Y341883D01*
X726849Y341806D01*
X726851Y341729D01*
X726857Y341651D01*
X726866Y341575D01*
X726880Y341498D01*
X726897Y341423D01*
X726918Y341349D01*
X726943Y341275D01*
X726971Y341203D01*
X727003Y341133D01*
X727038Y341064D01*
X727077Y340997D01*
X727119Y340932D01*
X727164Y340869D01*
X727212Y340808D01*
X727263Y340750D01*
X727317Y340695D01*
X727374Y340642D01*
X727433Y340593D01*
X727495Y340546D01*
X727559Y340502D01*
X727625Y340462D01*
X727693Y340425D01*
X727763Y340391D01*
X727834Y340361D01*
X727907Y340335D01*
X727981Y340312D01*
X728056Y340293D01*
X728131Y340278D01*
X728208Y340266D01*
X728285Y340258D01*
X728362Y340254D01*
X728440Y340254D01*
X728517Y340258D01*
X728594Y340266D01*
X728671Y340278D01*
X728746Y340293D01*
X728821Y340312D01*
X728895Y340335D01*
X728968Y340361D01*
X729039Y340391D01*
X729109Y340425D01*
X729177Y340462D01*
X729243Y340502D01*
X729307Y340546D01*
X729369Y340593D01*
X729428Y340642D01*
X729485Y340695D01*
X729539Y340750D01*
X729590Y340808D01*
X729638Y340869D01*
X729683Y340932D01*
X729725Y340997D01*
X729764Y341064D01*
X729799Y341133D01*
X729831Y341203D01*
X729859Y341275D01*
X729884Y341349D01*
X729905Y341423D01*
X729922Y341498D01*
X729936Y341575D01*
X729945Y341651D01*
X729951Y341729D01*
X729953Y341806D01*
X729643Y344600D02*
X729641Y344670D01*
X729635Y344739D01*
X729625Y344808D01*
X729612Y344876D01*
X729594Y344944D01*
X729573Y345010D01*
X729548Y345075D01*
X729520Y345139D01*
X729488Y345201D01*
X729453Y345261D01*
X729414Y345319D01*
X729372Y345374D01*
X729327Y345428D01*
X729279Y345478D01*
X729229Y345526D01*
X729175Y345571D01*
X729120Y345613D01*
X729062Y345652D01*
X729002Y345687D01*
X728940Y345719D01*
X728876Y345747D01*
X728811Y345772D01*
X728745Y345793D01*
X728677Y345811D01*
X728609Y345824D01*
X728540Y345834D01*
X728471Y345840D01*
X728401Y345842D01*
X728331Y345840D01*
X728262Y345834D01*
X728193Y345824D01*
X728125Y345811D01*
X728057Y345793D01*
X727991Y345772D01*
X727926Y345747D01*
X727862Y345719D01*
X727800Y345687D01*
X727740Y345652D01*
X727682Y345613D01*
X727627Y345571D01*
X727573Y345526D01*
X727523Y345478D01*
X727475Y345428D01*
X727430Y345374D01*
X727388Y345319D01*
X727349Y345261D01*
X727314Y345201D01*
X727282Y345139D01*
X727254Y345075D01*
X727229Y345010D01*
X727208Y344944D01*
X727190Y344876D01*
X727177Y344808D01*
X727167Y344739D01*
X727161Y344670D01*
X727159Y344600D01*
X727161Y344530D01*
X727167Y344461D01*
X727177Y344392D01*
X727190Y344324D01*
X727208Y344256D01*
X727229Y344190D01*
X727254Y344125D01*
X727282Y344061D01*
X727314Y343999D01*
X727349Y343939D01*
X727388Y343881D01*
X727430Y343826D01*
X727475Y343772D01*
X727523Y343722D01*
X727573Y343674D01*
X727627Y343629D01*
X727682Y343587D01*
X727740Y343548D01*
X727800Y343513D01*
X727862Y343481D01*
X727926Y343453D01*
X727991Y343428D01*
X728057Y343407D01*
X728125Y343389D01*
X728193Y343376D01*
X728262Y343366D01*
X728331Y343360D01*
X728401Y343358D01*
X728471Y343360D01*
X728540Y343366D01*
X728609Y343376D01*
X728677Y343389D01*
X728745Y343407D01*
X728811Y343428D01*
X728876Y343453D01*
X728940Y343481D01*
X729002Y343513D01*
X729062Y343548D01*
X729120Y343587D01*
X729175Y343629D01*
X729229Y343674D01*
X729279Y343722D01*
X729327Y343772D01*
X729372Y343826D01*
X729414Y343881D01*
X729453Y343939D01*
X729488Y343999D01*
X729520Y344061D01*
X729548Y344125D01*
X729573Y344190D01*
X729594Y344256D01*
X729612Y344324D01*
X729625Y344392D01*
X729635Y344461D01*
X729641Y344530D01*
X729643Y344600D01*
X724467Y344600D02*
X722915Y345842D01*
X722915Y340254D01*
X724467Y340254D02*
X721363Y340254D01*
X718981Y341496D02*
X717739Y345842D01*
X718981Y341496D02*
X715876Y341496D01*
X716808Y342738D02*
X716808Y340254D01*
X709382Y340254D02*
X709382Y345842D01*
X710934Y345842D02*
X707830Y345842D01*
X705548Y345842D02*
X705548Y340254D01*
X705548Y345842D02*
X703995Y345842D01*
X703918Y345840D01*
X703840Y345834D01*
X703764Y345825D01*
X703687Y345811D01*
X703612Y345794D01*
X703538Y345773D01*
X703464Y345748D01*
X703392Y345720D01*
X703322Y345688D01*
X703253Y345653D01*
X703186Y345614D01*
X703121Y345572D01*
X703058Y345527D01*
X702997Y345479D01*
X702939Y345428D01*
X702884Y345374D01*
X702831Y345317D01*
X702782Y345258D01*
X702735Y345196D01*
X702691Y345132D01*
X702651Y345066D01*
X702614Y344998D01*
X702580Y344928D01*
X702550Y344857D01*
X702524Y344784D01*
X702501Y344710D01*
X702482Y344635D01*
X702467Y344560D01*
X702455Y344483D01*
X702447Y344406D01*
X702443Y344329D01*
X702443Y344251D01*
X702447Y344174D01*
X702455Y344097D01*
X702467Y344020D01*
X702482Y343945D01*
X702501Y343870D01*
X702524Y343796D01*
X702550Y343723D01*
X702580Y343652D01*
X702614Y343582D01*
X702651Y343514D01*
X702691Y343448D01*
X702735Y343384D01*
X702782Y343322D01*
X702831Y343263D01*
X702884Y343206D01*
X702939Y343152D01*
X702997Y343101D01*
X703058Y343053D01*
X703121Y343008D01*
X703186Y342966D01*
X703253Y342927D01*
X703322Y342892D01*
X703392Y342860D01*
X703464Y342832D01*
X703538Y342807D01*
X703612Y342786D01*
X703687Y342769D01*
X703764Y342755D01*
X703840Y342746D01*
X703918Y342740D01*
X703995Y342738D01*
X705548Y342738D01*
X669746Y230254D02*
X668194Y230254D01*
X668117Y230256D01*
X668039Y230262D01*
X667963Y230271D01*
X667886Y230285D01*
X667811Y230302D01*
X667737Y230323D01*
X667663Y230348D01*
X667591Y230376D01*
X667521Y230408D01*
X667452Y230443D01*
X667385Y230482D01*
X667320Y230524D01*
X667257Y230569D01*
X667196Y230617D01*
X667138Y230668D01*
X667083Y230722D01*
X667030Y230779D01*
X666981Y230838D01*
X666934Y230900D01*
X666890Y230964D01*
X666850Y231030D01*
X666813Y231098D01*
X666779Y231168D01*
X666749Y231239D01*
X666723Y231312D01*
X666700Y231386D01*
X666681Y231461D01*
X666666Y231536D01*
X666654Y231613D01*
X666646Y231690D01*
X666642Y231767D01*
X666642Y231845D01*
X666646Y231922D01*
X666654Y231999D01*
X666666Y232076D01*
X666681Y232151D01*
X666700Y232226D01*
X666723Y232300D01*
X666749Y232373D01*
X666779Y232444D01*
X666813Y232514D01*
X666850Y232582D01*
X666890Y232648D01*
X666934Y232712D01*
X666981Y232774D01*
X667030Y232833D01*
X667083Y232890D01*
X667138Y232944D01*
X667196Y232995D01*
X667257Y233043D01*
X667320Y233088D01*
X667385Y233130D01*
X667452Y233169D01*
X667521Y233204D01*
X667591Y233236D01*
X667663Y233264D01*
X667737Y233289D01*
X667811Y233310D01*
X667886Y233327D01*
X667963Y233341D01*
X668039Y233350D01*
X668117Y233356D01*
X668194Y233358D01*
X667883Y235842D02*
X669746Y235842D01*
X667883Y235842D02*
X667813Y235840D01*
X667744Y235834D01*
X667675Y235824D01*
X667607Y235811D01*
X667539Y235793D01*
X667473Y235772D01*
X667408Y235747D01*
X667344Y235719D01*
X667282Y235687D01*
X667222Y235652D01*
X667164Y235613D01*
X667109Y235571D01*
X667055Y235526D01*
X667005Y235478D01*
X666957Y235428D01*
X666912Y235374D01*
X666870Y235319D01*
X666831Y235261D01*
X666796Y235201D01*
X666764Y235139D01*
X666736Y235075D01*
X666711Y235010D01*
X666690Y234944D01*
X666672Y234876D01*
X666659Y234808D01*
X666649Y234739D01*
X666643Y234670D01*
X666641Y234600D01*
X666643Y234530D01*
X666649Y234461D01*
X666659Y234392D01*
X666672Y234324D01*
X666690Y234256D01*
X666711Y234190D01*
X666736Y234125D01*
X666764Y234061D01*
X666796Y233999D01*
X666831Y233939D01*
X666870Y233881D01*
X666912Y233826D01*
X666957Y233772D01*
X667005Y233722D01*
X667055Y233674D01*
X667109Y233629D01*
X667164Y233587D01*
X667222Y233548D01*
X667282Y233513D01*
X667344Y233481D01*
X667408Y233453D01*
X667473Y233428D01*
X667539Y233407D01*
X667607Y233389D01*
X667675Y233376D01*
X667744Y233366D01*
X667813Y233360D01*
X667883Y233358D01*
X669125Y233358D01*
X664260Y233048D02*
X664258Y233179D01*
X664253Y233309D01*
X664243Y233439D01*
X664230Y233569D01*
X664214Y233699D01*
X664194Y233828D01*
X664170Y233956D01*
X664142Y234083D01*
X664111Y234210D01*
X664076Y234336D01*
X664038Y234461D01*
X663996Y234585D01*
X663951Y234707D01*
X663902Y234828D01*
X663850Y234948D01*
X663794Y235066D01*
X663771Y235126D01*
X663745Y235186D01*
X663716Y235243D01*
X663683Y235299D01*
X663647Y235353D01*
X663609Y235405D01*
X663567Y235455D01*
X663523Y235502D01*
X663476Y235547D01*
X663426Y235589D01*
X663375Y235628D01*
X663321Y235664D01*
X663265Y235697D01*
X663208Y235727D01*
X663149Y235754D01*
X663088Y235777D01*
X663027Y235797D01*
X662964Y235813D01*
X662900Y235826D01*
X662836Y235835D01*
X662772Y235840D01*
X662707Y235842D01*
X662642Y235840D01*
X662578Y235835D01*
X662514Y235826D01*
X662450Y235813D01*
X662387Y235797D01*
X662326Y235777D01*
X662265Y235754D01*
X662206Y235727D01*
X662149Y235697D01*
X662093Y235664D01*
X662039Y235628D01*
X661988Y235589D01*
X661938Y235547D01*
X661891Y235502D01*
X661847Y235455D01*
X661805Y235405D01*
X661767Y235353D01*
X661731Y235299D01*
X661698Y235243D01*
X661669Y235186D01*
X661643Y235126D01*
X661620Y235066D01*
X661621Y235066D02*
X661565Y234948D01*
X661513Y234828D01*
X661464Y234707D01*
X661419Y234585D01*
X661377Y234461D01*
X661339Y234336D01*
X661304Y234210D01*
X661273Y234084D01*
X661245Y233956D01*
X661221Y233828D01*
X661201Y233699D01*
X661185Y233569D01*
X661172Y233439D01*
X661162Y233309D01*
X661157Y233179D01*
X661155Y233048D01*
X664259Y233048D02*
X664257Y232917D01*
X664252Y232787D01*
X664242Y232657D01*
X664229Y232527D01*
X664213Y232397D01*
X664193Y232269D01*
X664169Y232140D01*
X664141Y232013D01*
X664110Y231886D01*
X664075Y231760D01*
X664037Y231635D01*
X663995Y231512D01*
X663950Y231389D01*
X663901Y231268D01*
X663849Y231148D01*
X663793Y231030D01*
X663794Y231030D02*
X663771Y230970D01*
X663745Y230910D01*
X663716Y230853D01*
X663683Y230797D01*
X663647Y230743D01*
X663609Y230691D01*
X663567Y230641D01*
X663523Y230594D01*
X663476Y230549D01*
X663426Y230507D01*
X663375Y230468D01*
X663321Y230432D01*
X663265Y230399D01*
X663208Y230369D01*
X663149Y230342D01*
X663088Y230319D01*
X663027Y230299D01*
X662964Y230283D01*
X662900Y230270D01*
X662836Y230261D01*
X662772Y230256D01*
X662707Y230254D01*
X661621Y231030D02*
X661565Y231148D01*
X661513Y231268D01*
X661464Y231389D01*
X661419Y231511D01*
X661377Y231635D01*
X661339Y231760D01*
X661304Y231886D01*
X661273Y232012D01*
X661245Y232140D01*
X661221Y232268D01*
X661201Y232397D01*
X661185Y232527D01*
X661172Y232657D01*
X661162Y232787D01*
X661157Y232917D01*
X661155Y233048D01*
X661620Y231030D02*
X661643Y230970D01*
X661669Y230910D01*
X661698Y230853D01*
X661731Y230797D01*
X661767Y230743D01*
X661805Y230691D01*
X661847Y230641D01*
X661891Y230594D01*
X661938Y230549D01*
X661988Y230507D01*
X662039Y230468D01*
X662093Y230432D01*
X662149Y230399D01*
X662206Y230369D01*
X662265Y230342D01*
X662326Y230319D01*
X662387Y230299D01*
X662450Y230283D01*
X662514Y230270D01*
X662578Y230261D01*
X662642Y230256D01*
X662707Y230254D01*
X663949Y231496D02*
X661466Y234600D01*
X657066Y235842D02*
X656993Y235840D01*
X656920Y235834D01*
X656847Y235825D01*
X656776Y235811D01*
X656704Y235794D01*
X656634Y235774D01*
X656565Y235749D01*
X656498Y235721D01*
X656432Y235690D01*
X656368Y235655D01*
X656305Y235617D01*
X656245Y235575D01*
X656187Y235531D01*
X656131Y235483D01*
X656078Y235433D01*
X656028Y235380D01*
X655980Y235324D01*
X655936Y235266D01*
X655894Y235206D01*
X655856Y235144D01*
X655821Y235079D01*
X655790Y235013D01*
X655762Y234946D01*
X655737Y234877D01*
X655717Y234807D01*
X655700Y234735D01*
X655686Y234664D01*
X655677Y234591D01*
X655671Y234518D01*
X655669Y234445D01*
X657066Y235842D02*
X657150Y235840D01*
X657233Y235834D01*
X657316Y235825D01*
X657398Y235811D01*
X657480Y235794D01*
X657561Y235772D01*
X657641Y235747D01*
X657719Y235719D01*
X657797Y235687D01*
X657872Y235651D01*
X657946Y235612D01*
X658018Y235569D01*
X658088Y235523D01*
X658155Y235474D01*
X658221Y235421D01*
X658283Y235366D01*
X658343Y235308D01*
X658401Y235247D01*
X658455Y235184D01*
X658507Y235118D01*
X658555Y235050D01*
X658600Y234979D01*
X658642Y234907D01*
X658680Y234832D01*
X658715Y234756D01*
X658746Y234679D01*
X658774Y234600D01*
X656135Y233359D02*
X656081Y233412D01*
X656030Y233469D01*
X655982Y233528D01*
X655937Y233589D01*
X655896Y233652D01*
X655857Y233718D01*
X655822Y233785D01*
X655790Y233854D01*
X655762Y233925D01*
X655738Y233996D01*
X655717Y234069D01*
X655700Y234143D01*
X655686Y234218D01*
X655677Y234293D01*
X655671Y234369D01*
X655669Y234445D01*
X656135Y233358D02*
X658773Y230254D01*
X655669Y230254D01*
X653287Y234600D02*
X651735Y235842D01*
X651735Y230254D01*
X653287Y230254D02*
X650182Y230254D01*
X643688Y230254D02*
X643688Y235842D01*
X645240Y235842D02*
X642136Y235842D01*
X639854Y235842D02*
X639854Y230254D01*
X639854Y235842D02*
X638302Y235842D01*
X638225Y235840D01*
X638147Y235834D01*
X638071Y235825D01*
X637994Y235811D01*
X637919Y235794D01*
X637845Y235773D01*
X637771Y235748D01*
X637699Y235720D01*
X637629Y235688D01*
X637560Y235653D01*
X637493Y235614D01*
X637428Y235572D01*
X637365Y235527D01*
X637304Y235479D01*
X637246Y235428D01*
X637191Y235374D01*
X637138Y235317D01*
X637089Y235258D01*
X637042Y235196D01*
X636998Y235132D01*
X636958Y235066D01*
X636921Y234998D01*
X636887Y234928D01*
X636857Y234857D01*
X636831Y234784D01*
X636808Y234710D01*
X636789Y234635D01*
X636774Y234560D01*
X636762Y234483D01*
X636754Y234406D01*
X636750Y234329D01*
X636750Y234251D01*
X636754Y234174D01*
X636762Y234097D01*
X636774Y234020D01*
X636789Y233945D01*
X636808Y233870D01*
X636831Y233796D01*
X636857Y233723D01*
X636887Y233652D01*
X636921Y233582D01*
X636958Y233514D01*
X636998Y233448D01*
X637042Y233384D01*
X637089Y233322D01*
X637138Y233263D01*
X637191Y233206D01*
X637246Y233152D01*
X637304Y233101D01*
X637365Y233053D01*
X637428Y233008D01*
X637493Y232966D01*
X637560Y232927D01*
X637629Y232892D01*
X637699Y232860D01*
X637771Y232832D01*
X637845Y232807D01*
X637919Y232786D01*
X637994Y232769D01*
X638071Y232755D01*
X638147Y232746D01*
X638225Y232740D01*
X638302Y232738D01*
X639854Y232738D01*
D12*
X950193Y30955D02*
X950193Y10889D01*
X955767Y10889D01*
X955881Y10891D01*
X955995Y10897D01*
X956109Y10907D01*
X956222Y10920D01*
X956335Y10938D01*
X956447Y10959D01*
X956559Y10984D01*
X956669Y11013D01*
X956779Y11046D01*
X956887Y11082D01*
X956994Y11122D01*
X957099Y11166D01*
X957203Y11213D01*
X957305Y11264D01*
X957406Y11318D01*
X957504Y11376D01*
X957601Y11437D01*
X957695Y11501D01*
X957788Y11568D01*
X957877Y11639D01*
X957965Y11713D01*
X958049Y11789D01*
X958132Y11868D01*
X958211Y11951D01*
X958287Y12035D01*
X958361Y12123D01*
X958432Y12212D01*
X958499Y12305D01*
X958563Y12399D01*
X958624Y12496D01*
X958682Y12594D01*
X958736Y12695D01*
X958787Y12797D01*
X958834Y12901D01*
X958878Y13006D01*
X958918Y13113D01*
X958954Y13221D01*
X958987Y13331D01*
X959016Y13441D01*
X959041Y13553D01*
X959062Y13665D01*
X959080Y13778D01*
X959093Y13891D01*
X959103Y14005D01*
X959109Y14119D01*
X959111Y14233D01*
X959111Y20922D01*
X959109Y21036D01*
X959103Y21150D01*
X959093Y21264D01*
X959080Y21377D01*
X959062Y21490D01*
X959041Y21602D01*
X959016Y21714D01*
X958987Y21824D01*
X958954Y21934D01*
X958918Y22042D01*
X958878Y22149D01*
X958834Y22254D01*
X958787Y22358D01*
X958736Y22460D01*
X958682Y22561D01*
X958624Y22659D01*
X958563Y22756D01*
X958499Y22850D01*
X958432Y22943D01*
X958361Y23032D01*
X958287Y23120D01*
X958211Y23204D01*
X958132Y23287D01*
X958049Y23366D01*
X957965Y23442D01*
X957877Y23516D01*
X957788Y23587D01*
X957695Y23654D01*
X957601Y23718D01*
X957504Y23779D01*
X957406Y23837D01*
X957305Y23891D01*
X957203Y23942D01*
X957099Y23989D01*
X956994Y24033D01*
X956887Y24073D01*
X956779Y24109D01*
X956669Y24142D01*
X956559Y24171D01*
X956447Y24196D01*
X956335Y24217D01*
X956222Y24235D01*
X956109Y24248D01*
X955995Y24258D01*
X955881Y24264D01*
X955767Y24266D01*
X950193Y24266D01*
X939017Y10889D02*
X933443Y10889D01*
X939017Y10889D02*
X939131Y10891D01*
X939245Y10897D01*
X939359Y10907D01*
X939472Y10920D01*
X939585Y10938D01*
X939697Y10959D01*
X939809Y10984D01*
X939919Y11013D01*
X940029Y11046D01*
X940137Y11082D01*
X940244Y11122D01*
X940349Y11166D01*
X940453Y11213D01*
X940555Y11264D01*
X940656Y11318D01*
X940754Y11376D01*
X940851Y11437D01*
X940945Y11501D01*
X941038Y11568D01*
X941127Y11639D01*
X941215Y11713D01*
X941299Y11789D01*
X941382Y11868D01*
X941461Y11951D01*
X941537Y12035D01*
X941611Y12123D01*
X941682Y12212D01*
X941749Y12305D01*
X941813Y12399D01*
X941874Y12496D01*
X941932Y12594D01*
X941986Y12695D01*
X942037Y12797D01*
X942084Y12901D01*
X942128Y13006D01*
X942168Y13113D01*
X942204Y13221D01*
X942237Y13331D01*
X942266Y13441D01*
X942291Y13553D01*
X942312Y13665D01*
X942330Y13778D01*
X942343Y13891D01*
X942353Y14005D01*
X942359Y14119D01*
X942361Y14233D01*
X942362Y14233D02*
X942362Y19807D01*
X942360Y19939D01*
X942354Y20071D01*
X942344Y20203D01*
X942331Y20334D01*
X942313Y20465D01*
X942292Y20596D01*
X942266Y20725D01*
X942237Y20854D01*
X942204Y20982D01*
X942168Y21109D01*
X942127Y21235D01*
X942083Y21360D01*
X942035Y21483D01*
X941984Y21605D01*
X941929Y21725D01*
X941870Y21843D01*
X941808Y21960D01*
X941742Y22075D01*
X941674Y22187D01*
X941601Y22298D01*
X941526Y22407D01*
X941447Y22513D01*
X941366Y22617D01*
X941281Y22718D01*
X941193Y22817D01*
X941102Y22913D01*
X941009Y23006D01*
X940913Y23097D01*
X940814Y23185D01*
X940713Y23270D01*
X940609Y23351D01*
X940503Y23430D01*
X940394Y23505D01*
X940283Y23578D01*
X940171Y23646D01*
X940056Y23712D01*
X939939Y23774D01*
X939821Y23833D01*
X939701Y23888D01*
X939579Y23939D01*
X939456Y23987D01*
X939331Y24031D01*
X939205Y24072D01*
X939078Y24108D01*
X938950Y24141D01*
X938821Y24170D01*
X938692Y24196D01*
X938561Y24217D01*
X938430Y24235D01*
X938299Y24248D01*
X938167Y24258D01*
X938035Y24264D01*
X937903Y24266D01*
X937771Y24264D01*
X937639Y24258D01*
X937507Y24248D01*
X937376Y24235D01*
X937245Y24217D01*
X937114Y24196D01*
X936985Y24170D01*
X936856Y24141D01*
X936728Y24108D01*
X936601Y24072D01*
X936475Y24031D01*
X936350Y23987D01*
X936227Y23939D01*
X936105Y23888D01*
X935985Y23833D01*
X935867Y23774D01*
X935750Y23712D01*
X935635Y23646D01*
X935523Y23578D01*
X935412Y23505D01*
X935303Y23430D01*
X935197Y23351D01*
X935093Y23270D01*
X934992Y23185D01*
X934893Y23097D01*
X934797Y23006D01*
X934704Y22913D01*
X934613Y22817D01*
X934525Y22718D01*
X934440Y22617D01*
X934359Y22513D01*
X934280Y22407D01*
X934205Y22298D01*
X934132Y22187D01*
X934064Y22075D01*
X933998Y21960D01*
X933936Y21843D01*
X933877Y21725D01*
X933822Y21605D01*
X933771Y21483D01*
X933723Y21360D01*
X933679Y21235D01*
X933638Y21109D01*
X933602Y20982D01*
X933569Y20854D01*
X933540Y20725D01*
X933514Y20596D01*
X933493Y20465D01*
X933475Y20334D01*
X933462Y20203D01*
X933452Y20071D01*
X933446Y19939D01*
X933444Y19807D01*
X933443Y19807D02*
X933443Y17578D01*
X942362Y17578D01*
X924623Y18692D02*
X919049Y16463D01*
X924622Y18693D02*
X924721Y18734D01*
X924818Y18779D01*
X924913Y18828D01*
X925006Y18880D01*
X925098Y18936D01*
X925187Y18995D01*
X925274Y19057D01*
X925358Y19123D01*
X925441Y19191D01*
X925520Y19263D01*
X925597Y19337D01*
X925671Y19414D01*
X925742Y19494D01*
X925810Y19576D01*
X925875Y19661D01*
X925937Y19748D01*
X925996Y19838D01*
X926051Y19929D01*
X926103Y20023D01*
X926151Y20118D01*
X926196Y20216D01*
X926237Y20314D01*
X926274Y20414D01*
X926308Y20516D01*
X926338Y20619D01*
X926364Y20722D01*
X926386Y20827D01*
X926405Y20932D01*
X926419Y21038D01*
X926430Y21145D01*
X926436Y21251D01*
X926439Y21358D01*
X926438Y21465D01*
X926432Y21572D01*
X926423Y21679D01*
X926410Y21785D01*
X926393Y21890D01*
X926372Y21995D01*
X926347Y22099D01*
X926318Y22202D01*
X926286Y22304D01*
X926250Y22405D01*
X926210Y22504D01*
X926166Y22602D01*
X926119Y22698D01*
X926068Y22792D01*
X926014Y22884D01*
X925957Y22974D01*
X925896Y23062D01*
X925832Y23148D01*
X925765Y23231D01*
X925695Y23312D01*
X925622Y23390D01*
X925546Y23465D01*
X925467Y23538D01*
X925386Y23607D01*
X925302Y23674D01*
X925216Y23737D01*
X925127Y23797D01*
X925037Y23854D01*
X924944Y23907D01*
X924850Y23957D01*
X924753Y24003D01*
X924655Y24046D01*
X924556Y24085D01*
X924455Y24120D01*
X924353Y24152D01*
X924249Y24180D01*
X924145Y24204D01*
X924040Y24224D01*
X923934Y24240D01*
X923828Y24252D01*
X923722Y24261D01*
X923615Y24265D01*
X923508Y24266D01*
X923204Y24258D01*
X922900Y24242D01*
X922596Y24220D01*
X922293Y24190D01*
X921991Y24153D01*
X921690Y24108D01*
X921390Y24057D01*
X921092Y23998D01*
X920794Y23932D01*
X920499Y23858D01*
X920205Y23778D01*
X919914Y23691D01*
X919624Y23597D01*
X919337Y23496D01*
X919053Y23387D01*
X918771Y23273D01*
X918492Y23151D01*
X919050Y16462D02*
X918951Y16421D01*
X918854Y16376D01*
X918759Y16327D01*
X918666Y16275D01*
X918574Y16219D01*
X918485Y16160D01*
X918398Y16098D01*
X918314Y16032D01*
X918231Y15964D01*
X918152Y15892D01*
X918075Y15818D01*
X918001Y15741D01*
X917930Y15661D01*
X917862Y15579D01*
X917797Y15494D01*
X917735Y15407D01*
X917676Y15317D01*
X917621Y15226D01*
X917569Y15132D01*
X917521Y15037D01*
X917476Y14939D01*
X917435Y14841D01*
X917398Y14741D01*
X917364Y14639D01*
X917334Y14536D01*
X917308Y14433D01*
X917286Y14328D01*
X917267Y14223D01*
X917253Y14117D01*
X917242Y14010D01*
X917236Y13904D01*
X917233Y13797D01*
X917234Y13690D01*
X917240Y13583D01*
X917249Y13476D01*
X917262Y13370D01*
X917279Y13265D01*
X917300Y13160D01*
X917325Y13056D01*
X917354Y12953D01*
X917386Y12851D01*
X917422Y12750D01*
X917462Y12651D01*
X917506Y12553D01*
X917553Y12457D01*
X917604Y12363D01*
X917658Y12271D01*
X917715Y12181D01*
X917776Y12093D01*
X917840Y12007D01*
X917907Y11924D01*
X917977Y11843D01*
X918050Y11765D01*
X918126Y11690D01*
X918205Y11617D01*
X918286Y11548D01*
X918370Y11481D01*
X918456Y11418D01*
X918545Y11358D01*
X918635Y11301D01*
X918728Y11248D01*
X918822Y11198D01*
X918919Y11152D01*
X919017Y11109D01*
X919116Y11070D01*
X919217Y11035D01*
X919319Y11003D01*
X919423Y10975D01*
X919527Y10951D01*
X919632Y10931D01*
X919738Y10915D01*
X919844Y10903D01*
X919950Y10894D01*
X920057Y10890D01*
X920164Y10889D01*
X920611Y10901D01*
X921058Y10923D01*
X921504Y10956D01*
X921949Y10999D01*
X922393Y11053D01*
X922835Y11117D01*
X923276Y11192D01*
X923715Y11277D01*
X924152Y11373D01*
X924586Y11479D01*
X925018Y11595D01*
X925447Y11721D01*
X925873Y11857D01*
X926295Y12004D01*
X910095Y10889D02*
X910095Y24266D01*
X910652Y29840D02*
X910652Y30955D01*
X909538Y30955D01*
X909538Y29840D01*
X910652Y29840D01*
X899534Y10889D02*
X893960Y10889D01*
X899534Y10889D02*
X899648Y10891D01*
X899762Y10897D01*
X899876Y10907D01*
X899989Y10920D01*
X900102Y10938D01*
X900214Y10959D01*
X900326Y10984D01*
X900436Y11013D01*
X900546Y11046D01*
X900654Y11082D01*
X900761Y11122D01*
X900866Y11166D01*
X900970Y11213D01*
X901072Y11264D01*
X901173Y11318D01*
X901271Y11376D01*
X901368Y11437D01*
X901462Y11501D01*
X901555Y11568D01*
X901644Y11639D01*
X901732Y11713D01*
X901816Y11789D01*
X901899Y11868D01*
X901978Y11951D01*
X902054Y12035D01*
X902128Y12123D01*
X902199Y12212D01*
X902266Y12305D01*
X902330Y12399D01*
X902391Y12496D01*
X902449Y12594D01*
X902503Y12695D01*
X902554Y12797D01*
X902601Y12901D01*
X902645Y13006D01*
X902685Y13113D01*
X902721Y13221D01*
X902754Y13331D01*
X902783Y13441D01*
X902808Y13553D01*
X902829Y13665D01*
X902847Y13778D01*
X902860Y13891D01*
X902870Y14005D01*
X902876Y14119D01*
X902878Y14233D01*
X902878Y20922D01*
X902876Y21036D01*
X902870Y21150D01*
X902860Y21264D01*
X902847Y21377D01*
X902829Y21490D01*
X902808Y21602D01*
X902783Y21714D01*
X902754Y21824D01*
X902721Y21934D01*
X902685Y22042D01*
X902645Y22149D01*
X902601Y22254D01*
X902554Y22358D01*
X902503Y22460D01*
X902449Y22561D01*
X902391Y22659D01*
X902330Y22756D01*
X902266Y22850D01*
X902199Y22943D01*
X902128Y23032D01*
X902054Y23120D01*
X901978Y23204D01*
X901899Y23287D01*
X901816Y23366D01*
X901732Y23442D01*
X901644Y23516D01*
X901555Y23587D01*
X901462Y23654D01*
X901368Y23718D01*
X901271Y23779D01*
X901173Y23837D01*
X901072Y23891D01*
X900970Y23942D01*
X900866Y23989D01*
X900761Y24033D01*
X900654Y24073D01*
X900546Y24109D01*
X900436Y24142D01*
X900326Y24171D01*
X900214Y24196D01*
X900102Y24217D01*
X899989Y24235D01*
X899876Y24248D01*
X899762Y24258D01*
X899648Y24264D01*
X899534Y24266D01*
X893960Y24266D01*
X893960Y7545D01*
X893962Y7431D01*
X893968Y7317D01*
X893978Y7203D01*
X893991Y7090D01*
X894009Y6977D01*
X894030Y6865D01*
X894055Y6753D01*
X894084Y6643D01*
X894117Y6533D01*
X894153Y6425D01*
X894193Y6318D01*
X894237Y6213D01*
X894284Y6109D01*
X894335Y6007D01*
X894389Y5906D01*
X894447Y5808D01*
X894508Y5711D01*
X894572Y5617D01*
X894639Y5524D01*
X894710Y5435D01*
X894784Y5347D01*
X894860Y5263D01*
X894939Y5180D01*
X895022Y5101D01*
X895106Y5025D01*
X895194Y4951D01*
X895283Y4880D01*
X895376Y4813D01*
X895470Y4749D01*
X895567Y4688D01*
X895665Y4630D01*
X895766Y4576D01*
X895868Y4525D01*
X895972Y4478D01*
X896077Y4434D01*
X896184Y4394D01*
X896292Y4358D01*
X896402Y4325D01*
X896512Y4296D01*
X896624Y4271D01*
X896736Y4250D01*
X896849Y4232D01*
X896962Y4219D01*
X897076Y4209D01*
X897190Y4203D01*
X897304Y4201D01*
X897304Y4200D02*
X901763Y4200D01*
X885511Y10889D02*
X885511Y24266D01*
X879937Y24266D01*
X879823Y24264D01*
X879709Y24258D01*
X879595Y24248D01*
X879482Y24235D01*
X879369Y24217D01*
X879257Y24196D01*
X879145Y24171D01*
X879035Y24142D01*
X878925Y24109D01*
X878817Y24073D01*
X878710Y24033D01*
X878605Y23989D01*
X878501Y23942D01*
X878399Y23891D01*
X878298Y23837D01*
X878200Y23779D01*
X878103Y23718D01*
X878009Y23654D01*
X877916Y23587D01*
X877827Y23516D01*
X877739Y23442D01*
X877655Y23366D01*
X877572Y23287D01*
X877493Y23204D01*
X877417Y23120D01*
X877343Y23032D01*
X877273Y22943D01*
X877205Y22850D01*
X877141Y22756D01*
X877080Y22660D01*
X877022Y22561D01*
X876968Y22460D01*
X876917Y22358D01*
X876870Y22254D01*
X876826Y22149D01*
X876786Y22042D01*
X876750Y21934D01*
X876717Y21824D01*
X876688Y21714D01*
X876663Y21602D01*
X876642Y21490D01*
X876624Y21377D01*
X876611Y21264D01*
X876601Y21150D01*
X876595Y21036D01*
X876593Y20922D01*
X876593Y10889D01*
X865482Y10889D02*
X859908Y10889D01*
X865482Y10889D02*
X865596Y10891D01*
X865710Y10897D01*
X865824Y10907D01*
X865937Y10920D01*
X866050Y10938D01*
X866162Y10959D01*
X866274Y10984D01*
X866384Y11013D01*
X866494Y11046D01*
X866602Y11082D01*
X866709Y11122D01*
X866814Y11166D01*
X866918Y11213D01*
X867020Y11264D01*
X867121Y11318D01*
X867219Y11376D01*
X867316Y11437D01*
X867410Y11501D01*
X867503Y11568D01*
X867592Y11639D01*
X867680Y11713D01*
X867764Y11789D01*
X867847Y11868D01*
X867926Y11951D01*
X868002Y12035D01*
X868076Y12123D01*
X868147Y12212D01*
X868214Y12305D01*
X868278Y12399D01*
X868339Y12496D01*
X868397Y12594D01*
X868451Y12695D01*
X868502Y12797D01*
X868549Y12901D01*
X868593Y13006D01*
X868633Y13113D01*
X868669Y13221D01*
X868702Y13331D01*
X868731Y13441D01*
X868756Y13553D01*
X868777Y13665D01*
X868795Y13778D01*
X868808Y13891D01*
X868818Y14005D01*
X868824Y14119D01*
X868826Y14233D01*
X868826Y19807D01*
X868824Y19939D01*
X868818Y20071D01*
X868808Y20203D01*
X868795Y20334D01*
X868777Y20465D01*
X868756Y20596D01*
X868730Y20725D01*
X868701Y20854D01*
X868668Y20982D01*
X868632Y21109D01*
X868591Y21235D01*
X868547Y21360D01*
X868499Y21483D01*
X868448Y21605D01*
X868393Y21725D01*
X868334Y21843D01*
X868272Y21960D01*
X868206Y22075D01*
X868138Y22187D01*
X868065Y22298D01*
X867990Y22407D01*
X867911Y22513D01*
X867830Y22617D01*
X867745Y22718D01*
X867657Y22817D01*
X867566Y22913D01*
X867473Y23006D01*
X867377Y23097D01*
X867278Y23185D01*
X867177Y23270D01*
X867073Y23351D01*
X866967Y23430D01*
X866858Y23505D01*
X866747Y23578D01*
X866635Y23646D01*
X866520Y23712D01*
X866403Y23774D01*
X866285Y23833D01*
X866165Y23888D01*
X866043Y23939D01*
X865920Y23987D01*
X865795Y24031D01*
X865669Y24072D01*
X865542Y24108D01*
X865414Y24141D01*
X865285Y24170D01*
X865156Y24196D01*
X865025Y24217D01*
X864894Y24235D01*
X864763Y24248D01*
X864631Y24258D01*
X864499Y24264D01*
X864367Y24266D01*
X864235Y24264D01*
X864103Y24258D01*
X863971Y24248D01*
X863840Y24235D01*
X863709Y24217D01*
X863578Y24196D01*
X863449Y24170D01*
X863320Y24141D01*
X863192Y24108D01*
X863065Y24072D01*
X862939Y24031D01*
X862814Y23987D01*
X862691Y23939D01*
X862569Y23888D01*
X862449Y23833D01*
X862331Y23774D01*
X862214Y23712D01*
X862099Y23646D01*
X861987Y23578D01*
X861876Y23505D01*
X861767Y23430D01*
X861661Y23351D01*
X861557Y23270D01*
X861456Y23185D01*
X861357Y23097D01*
X861261Y23006D01*
X861168Y22913D01*
X861077Y22817D01*
X860989Y22718D01*
X860904Y22617D01*
X860823Y22513D01*
X860744Y22407D01*
X860669Y22298D01*
X860596Y22187D01*
X860528Y22075D01*
X860462Y21960D01*
X860400Y21843D01*
X860341Y21725D01*
X860286Y21605D01*
X860235Y21483D01*
X860187Y21360D01*
X860143Y21235D01*
X860102Y21109D01*
X860066Y20982D01*
X860033Y20854D01*
X860004Y20725D01*
X859978Y20596D01*
X859957Y20465D01*
X859939Y20334D01*
X859926Y20203D01*
X859916Y20071D01*
X859910Y19939D01*
X859908Y19807D01*
X859908Y17578D01*
X868826Y17578D01*
X843906Y10889D02*
X843906Y30955D01*
X843906Y10889D02*
X849480Y10889D01*
X849594Y10891D01*
X849708Y10897D01*
X849822Y10907D01*
X849935Y10920D01*
X850048Y10938D01*
X850160Y10959D01*
X850272Y10984D01*
X850382Y11013D01*
X850492Y11046D01*
X850600Y11082D01*
X850707Y11122D01*
X850812Y11166D01*
X850916Y11213D01*
X851018Y11264D01*
X851119Y11318D01*
X851217Y11376D01*
X851314Y11437D01*
X851408Y11501D01*
X851501Y11568D01*
X851590Y11639D01*
X851678Y11713D01*
X851762Y11789D01*
X851845Y11868D01*
X851924Y11951D01*
X852000Y12035D01*
X852074Y12123D01*
X852145Y12212D01*
X852212Y12305D01*
X852276Y12399D01*
X852337Y12496D01*
X852395Y12594D01*
X852449Y12695D01*
X852500Y12797D01*
X852547Y12901D01*
X852591Y13006D01*
X852631Y13113D01*
X852667Y13221D01*
X852700Y13331D01*
X852729Y13441D01*
X852754Y13553D01*
X852775Y13665D01*
X852793Y13778D01*
X852806Y13891D01*
X852816Y14005D01*
X852822Y14119D01*
X852824Y14233D01*
X852825Y14233D02*
X852825Y20922D01*
X852824Y20922D02*
X852822Y21036D01*
X852816Y21150D01*
X852806Y21264D01*
X852793Y21377D01*
X852775Y21490D01*
X852754Y21602D01*
X852729Y21714D01*
X852700Y21824D01*
X852667Y21934D01*
X852631Y22042D01*
X852591Y22149D01*
X852547Y22254D01*
X852500Y22358D01*
X852449Y22460D01*
X852395Y22561D01*
X852337Y22659D01*
X852276Y22756D01*
X852212Y22850D01*
X852145Y22943D01*
X852074Y23032D01*
X852000Y23120D01*
X851924Y23204D01*
X851845Y23287D01*
X851762Y23366D01*
X851678Y23442D01*
X851590Y23516D01*
X851501Y23587D01*
X851408Y23654D01*
X851314Y23718D01*
X851217Y23779D01*
X851119Y23837D01*
X851018Y23891D01*
X850916Y23942D01*
X850812Y23989D01*
X850707Y24033D01*
X850600Y24073D01*
X850492Y24109D01*
X850382Y24142D01*
X850272Y24171D01*
X850160Y24196D01*
X850048Y24217D01*
X849935Y24235D01*
X849822Y24248D01*
X849708Y24258D01*
X849594Y24264D01*
X849480Y24266D01*
X843906Y24266D01*
X825505Y30955D02*
X825505Y10889D01*
X819931Y10889D01*
X819817Y10891D01*
X819703Y10897D01*
X819589Y10907D01*
X819476Y10920D01*
X819363Y10938D01*
X819251Y10959D01*
X819139Y10984D01*
X819029Y11013D01*
X818919Y11046D01*
X818811Y11082D01*
X818704Y11122D01*
X818599Y11166D01*
X818495Y11213D01*
X818393Y11264D01*
X818292Y11318D01*
X818194Y11376D01*
X818097Y11437D01*
X818003Y11501D01*
X817910Y11568D01*
X817821Y11639D01*
X817733Y11713D01*
X817649Y11789D01*
X817566Y11868D01*
X817487Y11951D01*
X817411Y12035D01*
X817337Y12123D01*
X817267Y12212D01*
X817199Y12305D01*
X817135Y12399D01*
X817074Y12495D01*
X817016Y12594D01*
X816962Y12695D01*
X816911Y12797D01*
X816864Y12901D01*
X816820Y13006D01*
X816780Y13113D01*
X816744Y13221D01*
X816711Y13331D01*
X816682Y13441D01*
X816657Y13553D01*
X816636Y13665D01*
X816618Y13778D01*
X816605Y13891D01*
X816595Y14005D01*
X816589Y14119D01*
X816587Y14233D01*
X816587Y20922D01*
X816589Y21036D01*
X816595Y21150D01*
X816605Y21264D01*
X816618Y21377D01*
X816636Y21490D01*
X816657Y21602D01*
X816682Y21714D01*
X816711Y21824D01*
X816744Y21934D01*
X816780Y22042D01*
X816820Y22149D01*
X816864Y22254D01*
X816911Y22358D01*
X816962Y22460D01*
X817016Y22561D01*
X817074Y22659D01*
X817135Y22756D01*
X817199Y22850D01*
X817266Y22943D01*
X817337Y23032D01*
X817411Y23120D01*
X817487Y23204D01*
X817566Y23287D01*
X817649Y23366D01*
X817733Y23442D01*
X817821Y23516D01*
X817910Y23587D01*
X818003Y23654D01*
X818097Y23718D01*
X818194Y23779D01*
X818292Y23837D01*
X818393Y23891D01*
X818495Y23942D01*
X818599Y23989D01*
X818704Y24033D01*
X818811Y24073D01*
X818919Y24109D01*
X819029Y24142D01*
X819139Y24171D01*
X819251Y24196D01*
X819363Y24217D01*
X819476Y24235D01*
X819589Y24248D01*
X819703Y24258D01*
X819817Y24264D01*
X819931Y24266D01*
X825505Y24266D01*
X810122Y4200D02*
X807892Y4200D01*
X801203Y24266D01*
X810122Y24266D02*
X805662Y10889D01*
X784168Y10889D02*
X784168Y30955D01*
X784168Y24266D02*
X778594Y24266D01*
X778480Y24264D01*
X778366Y24258D01*
X778252Y24248D01*
X778139Y24235D01*
X778026Y24217D01*
X777914Y24196D01*
X777802Y24171D01*
X777692Y24142D01*
X777582Y24109D01*
X777474Y24073D01*
X777367Y24033D01*
X777262Y23989D01*
X777158Y23942D01*
X777056Y23891D01*
X776955Y23837D01*
X776857Y23779D01*
X776760Y23718D01*
X776666Y23654D01*
X776573Y23587D01*
X776484Y23516D01*
X776396Y23442D01*
X776312Y23366D01*
X776229Y23287D01*
X776150Y23204D01*
X776074Y23120D01*
X776000Y23032D01*
X775930Y22943D01*
X775862Y22850D01*
X775798Y22756D01*
X775737Y22660D01*
X775679Y22561D01*
X775625Y22460D01*
X775574Y22358D01*
X775527Y22254D01*
X775483Y22149D01*
X775443Y22042D01*
X775407Y21934D01*
X775374Y21824D01*
X775345Y21714D01*
X775320Y21602D01*
X775299Y21490D01*
X775281Y21377D01*
X775268Y21264D01*
X775258Y21150D01*
X775252Y21036D01*
X775250Y20922D01*
X775250Y10889D01*
X768101Y4200D02*
X765872Y4200D01*
X759183Y24266D01*
X768101Y24266D02*
X763642Y10889D01*
X752731Y7545D02*
X752731Y24266D01*
X752732Y7545D02*
X752734Y7431D01*
X752740Y7317D01*
X752750Y7203D01*
X752763Y7090D01*
X752781Y6977D01*
X752802Y6865D01*
X752827Y6753D01*
X752856Y6643D01*
X752889Y6533D01*
X752925Y6425D01*
X752965Y6318D01*
X753009Y6213D01*
X753056Y6109D01*
X753107Y6007D01*
X753161Y5906D01*
X753219Y5808D01*
X753280Y5711D01*
X753344Y5617D01*
X753411Y5524D01*
X753482Y5435D01*
X753556Y5347D01*
X753632Y5263D01*
X753711Y5180D01*
X753794Y5101D01*
X753878Y5025D01*
X753966Y4951D01*
X754055Y4880D01*
X754148Y4813D01*
X754242Y4749D01*
X754339Y4688D01*
X754437Y4630D01*
X754538Y4576D01*
X754640Y4525D01*
X754744Y4478D01*
X754849Y4434D01*
X754956Y4394D01*
X755064Y4358D01*
X755174Y4325D01*
X755284Y4296D01*
X755396Y4271D01*
X755508Y4250D01*
X755621Y4232D01*
X755734Y4219D01*
X755848Y4209D01*
X755962Y4203D01*
X756076Y4201D01*
X756076Y4200D02*
X757190Y4200D01*
X753289Y29840D02*
X753289Y30955D01*
X752174Y30955D01*
X752174Y29840D01*
X753289Y29840D01*
M02*
